<?xml version="1.0" encoding="UTF-8" standalone="no"?>
<!-- Created with Inkscape (http://www.inkscape.org/) -->

<svg
   xmlns:dc="http://purl.org/dc/elements/1.1/"
   xmlns:cc="http://creativecommons.org/ns#"
   xmlns:rdf="http://www.w3.org/1999/02/22-rdf-syntax-ns#"
   xmlns:svg="http://www.w3.org/2000/svg"
   xmlns="http://www.w3.org/2000/svg"
   xmlns:sodipodi="http://sodipodi.sourceforge.net/DTD/sodipodi-0.dtd"
   xmlns:inkscape="http://www.inkscape.org/namespaces/inkscape"
   width="744.09448819"
   height="1052.3622047"
   id="svg2"
   version="1.1"
   inkscape:version="0.48.4 r9939"
   sodipodi:docname="Nuovo documento 1">
  <defs
     id="defs4" />
  <sodipodi:namedview
     id="base"
     pagecolor="#ffffff"
     bordercolor="#666666"
     borderopacity="1.0"
     inkscape:pageopacity="0.0"
     inkscape:pageshadow="2"
     inkscape:zoom="0.5"
     inkscape:cx="375"
     inkscape:cy="520"
     inkscape:document-units="px"
     inkscape:current-layer="layer1"
     showgrid="false"
     inkscape:window-width="1366"
     inkscape:window-height="720"
     inkscape:window-x="-3"
     inkscape:window-y="-3"
     inkscape:window-maximized="1" />
  <metadata
     id="metadata7">
    <rdf:RDF>
      <cc:Work
         rdf:about="">
        <dc:format>image/svg+xml</dc:format>
        <dc:type
           rdf:resource="http://purl.org/dc/dcmitype/StillImage" />
        <dc:title></dc:title>
      </cc:Work>
    </rdf:RDF>
  </metadata>
  <g
     inkscape:label="Livello 1"
     inkscape:groupmode="layer"
     id="layer1">
    <g
       id="g3079"
       transform="matrix(0.67484679,0,0,0.67484679,108.50302,-64.40987)">
      <path
         style="fill:#fdfdfd"
         d="m -88.666672,472.36218 0,-326 434.666652,0 434.66666,0 0,326 0,326 -434.66666,0 -434.666652,0 0,-326 z"
         id="path3111"
         inkscape:connector-curvature="0" />
      <path
         style="fill:#f4f4f4"
         d="m -1.733341,796.18885 c 0,-1.2879 -7.9688894,-2.17334 -19.559999,-2.17334 l -19.56,0 0,-8.69333 c 0,-8.69333 0,-8.69333 -8.693333,-8.69333 -8.693333,0 -8.693333,0 -8.693333,-8.69334 0,-8.69333 0,-8.69333 -8.693333,-8.69333 -8.693333,0 -8.693333,0 -8.693333,-8.69333 0,-6.45415 -0.879683,-8.69334 -3.415238,-8.69334 -8.392835,0 -9.624762,-5.00718 -9.624762,-39.12 0,-34.11281 1.231927,-39.12 9.624762,-39.12 1.87838,0 3.415238,-0.978 3.415238,-2.17333 0,-1.19533 3.865982,-2.17333 8.591071,-2.17333 4.725089,0 10.837589,-0.91033 13.583333,-2.02292 2.745743,-1.11262 7.613951,-2.58122 10.81824,-3.26359 3.900979,-0.83073 6.055296,-2.85521 6.52,-6.12708 0.634952,-4.47052 2.119028,-4.97891 17.436818,-5.97308 9.208539,-0.59767 17.9616388,-2.30917 19.45133271,-3.80333 1.49980639,-1.50432 7.95181999,-2.71667 14.45774929,-2.71667 9.943909,0 12.405906,-0.83484 16.023074,-5.43333 3.774812,-4.7989 5.921659,-5.43334 18.385665,-5.43334 7.76149,0 15.958425,-0.98828 18.21541,-2.19617 2.256985,-1.20792 10.016689,-2.81423 17.243789,-3.56961 7.227098,-0.75539 13.14018,-2.21211 13.14018,-3.23716 0,-1.02506 7.60639,-1.86372 16.90309,-1.86372 11.16411,0 18.41425,-1.05846 21.35394,-3.1175 2.89862,-2.03028 12.73119,-3.51569 28.19359,-4.25923 36.04156,-1.73317 53.88458,-3.65581 56.88604,-6.12969 2.09357,-1.72559 2.71234,-22.74018 2.69778,-91.62302 -0.0109,-49.16115 -0.63444,-94.50836 -1.38676,-100.7716 l -1.36785,-11.3877 -8.3687,1.33821 c -10.14134,1.62167 -19.97689,-2.05895 -24.67901,-9.2353 -6.54158,-9.98368 -4.76635,-18.1334 10.80923,-49.62305 15.91156,-32.16892 25.23916,-42.49779 38.37807,-42.49779 8.39637,0 7.80415,-2.8912 -1.26386,-6.17023 -20.90393,-7.55896 -31.45857,-37.80996 -20.21648,-57.9431 5.9946,-10.73555 23.98534,-20.67078 37.30062,-20.59894 18.29142,0.0987 35.38532,12.91691 40.64746,30.48038 1.99505,6.65893 1.98288,11.25047 -0.0539,20.35205 -3.03371,13.55612 -9.53311,21.5512 -22.08946,27.17285 l -8.83438,3.95527 11.15148,1.07151 c 13.06739,1.25561 28.92624,11.09889 30.01573,18.63018 0.64748,4.47572 1.02627,4.58423 5.37359,1.53927 2.57227,-1.80175 8.58506,-3.27591 13.36168,-3.27591 7.5514,0 10.17967,1.47636 20.14028,11.31324 10.75693,10.62331 11.63563,11.06695 14.40863,7.27464 1.62422,-2.22123 4.01189,-3.38424 5.30598,-2.58446 1.29407,0.79979 3.01613,0.38095 3.8268,-0.93073 0.81066,-1.31169 3.57659,-1.85715 6.14649,-1.21214 3.56171,0.89392 5.87744,-0.58565 9.74049,-6.22341 6.87621,-10.03518 13.18103,-13.7699 29.15651,-17.27112 l 13.54958,-2.96957 -13.45507,-0.21822 c -14.02247,-0.22743 -18.07291,-2.56983 -13.65292,-7.8956 2.04663,-2.46604 1.85349,-5.02155 -0.89956,-11.90211 -7.89166,-19.7232 -2.4743,-41.63551 12.91044,-52.22048 8.23268,-5.66424 11.23175,-6.44004 24.89575,-6.44004 15.31309,0 15.65641,0.12588 23.98378,8.793 15.02649,15.63957 17.07873,41.10501 4.55868,56.56664 -5.09745,6.29506 -2.05874,13.41367 7.71552,18.07468 10.1117,4.82194 14.06829,12.38307 16.67747,31.87107 1.27157,9.49737 2.88371,17.26795 3.58252,17.26795 0.69881,0 0.87096,3.423 0.38253,7.60666 -0.71648,6.13721 -0.15235,7.60667 2.92031,7.60667 3.41356,0 3.68371,1.81793 2.60624,17.53808 -0.66115,9.64593 -0.39846,20.34014 0.58373,23.76488 0.98222,3.42476 2.48227,16.97221 3.33348,30.10545 l 1.54763,23.87863 -5.86408,5.86409 c -5.13098,5.13098 -7.16227,5.73934 -16.24843,4.86627 l -10.38436,-0.99783 -1.40684,29.33385 c -1.75125,36.51559 -1.76897,75.97378 -0.0369,82.43658 0.96676,3.60754 2.92029,4.89 7.44871,4.89 3.37605,0 6.7427,0.978 7.48146,2.17333 0.73876,1.19534 7.84191,2.17334 15.78481,2.17334 21.24283,0 60.40326,4.12774 76.58185,8.07219 7.76967,1.89428 20.93342,3.87529 29.25277,4.4022 8.31934,0.52692 17.09446,2.33674 19.50023,4.02184 2.40579,1.68507 8.06854,3.06377 12.58392,3.06377 4.51536,0 8.20975,0.978 8.20975,2.17333 0,1.19533 1.7115,2.20443 3.80333,2.24245 2.09183,0.038 5.70176,1.50503 8.02206,3.26 2.73985,2.07231 9.35085,3.19088 18.85892,3.19088 13.02764,0 15.11095,0.59847 18.91407,5.43334 2.35063,2.98833 5.91446,5.43333 7.91964,5.43333 2.00519,0 5.11279,1.467 6.90579,3.26 2.26722,2.26722 7.82239,3.26 18.24161,3.26 12.75734,0 15.32702,0.64535 17.30791,4.34667 1.59703,2.98407 4.55057,4.34666 9.42179,4.34666 9.97164,0 12.31154,3.38708 12.31154,17.82134 0,10.0105 0.70303,12.60533 3.41524,12.60533 5.45333,0 9.62476,5.65162 9.62476,13.04 0,7.38838 -4.17143,13.04 -9.62476,13.04 -2.53556,0 -3.41524,2.23919 -3.41524,8.69333 0,8.69334 0,8.69334 -8.69333,8.69334 -4.78133,0 -8.69333,0.9244 -8.69333,2.05425 0,1.12983 -4.6455,2.35233 -10.32334,2.71667 -9.4538,0.60662 -10.38125,1.16582 -11.01102,6.63908 -0.67649,5.87921 -0.93338,5.97666 -15.75666,5.97666 -8.5971,0 -15.06898,0.93341 -15.06898,2.17334 0,1.19533 -4.33115,2.17333 -9.62476,2.17333 -5.65758,0 -10.96849,1.34373 -12.88476,3.26 -1.793,1.793 -5.28587,3.26 -7.76191,3.26 -2.55279,0 -4.50191,1.41143 -4.50191,3.26 0,2.35444 -2.41481,3.26 -8.69333,3.26 -4.78133,0 -8.69333,0.92441 -8.69333,2.05426 0,1.12983 -4.6455,2.35233 -10.32333,2.71666 -9.45381,0.60662 -10.38126,1.16582 -11.01102,6.63908 -0.6765,5.87921 -0.93339,5.97667 -15.75667,5.97667 -14.62469,0 -15.06898,0.16017 -15.06898,5.43333 0,4.89 -0.86933,5.43333 -8.69333,5.43333 -6.27852,0 -8.69334,0.90557 -8.69334,3.26 0,2.68044 -3.8637,3.26 -21.73333,3.26 -17.86962,0 -21.73333,-0.57956 -21.73333,-3.26 0,-1.8111 -1.93186,-3.26 -4.34667,-3.26 -2.39067,0 -4.34666,1.04785 -4.34666,2.32858 -5e-5,8.72702 5.88745,8.53809 -266.07813,8.53809 -171.796826,0 -259.868571,-0.73656 -259.868571,-2.17333 z M 345.04126,593.05129 c 3.04532,-2.30334 10.31816,-3.2101 26.14776,-3.26 l 21.92907,-0.0691 1.43427,-52.51193 c 1.81195,-66.33852 1.85174,-149.1508 0.0761,-158.02974 -1.52396,-7.61986 -6.05193,-8.90334 -9.39206,-2.66224 -1.67305,3.12612 -1.42762,4.42964 1.01019,5.36511 4.24428,1.6287 4.15711,7.89213 -0.10975,7.89213 -1.83154,0 -4.05618,-1.96291 -4.94366,-4.36203 -1.60807,-4.34701 -1.64241,-4.34736 -9.97171,-0.10084 l -8.3581,4.26119 -12.36437,-6.24153 c -11.67889,-5.89547 -31.05809,-22.96392 -43.89123,-38.65767 -5.09844,-6.23492 -5.99394,-6.61898 -7.6013,-3.26 -1.00212,2.09415 -2.14319,60.28705 -2.53571,129.31755 l -0.71386,125.51 22.53284,0 c 16.44777,0 23.67212,-0.8617 26.75156,-3.19089 z m 20.35813,-256.32896 c 1.73978,-2.0963 1.82397,-3.51212 0.26613,-4.47493 -1.25338,-0.77463 -2.27887,-0.37269 -2.27887,0.89318 0,1.26588 -1.52472,2.3016 -3.38827,2.3016 -1.86355,0 -2.78382,0.978 -2.04506,2.17333 1.86824,3.02288 4.45342,2.71278 7.44607,-0.89318 z m 306.60058,422.51985 c 0,-4.11371 1.06081,-4.51675 10.32334,-3.92241 7.43299,0.47694 10.32333,1.57514 10.32333,3.92241 0,2.34727 -2.89034,3.44547 -10.32333,3.92241 -9.26253,0.59434 -10.32334,0.1913 -10.32334,-3.92241 z M 495.37138,364.55578 c -0.87162,-0.87159 -1.58473,-3.08431 -1.58473,-4.91716 0,-2.44629 0.64293,-2.6895 2.41783,-0.91461 1.3298,1.32981 2.04293,3.54254 1.58473,4.91717 -0.45823,1.37463 -1.54624,1.78622 -2.41783,0.9146 z"
         id="path3109"
         inkscape:connector-curvature="0" />
      <path
         style="fill:#e9e9e9"
         d="m 191.0358,751.34022 c -0.84208,-0.84208 -11.95746,-2.27524 -24.70087,-3.1848 -24.47534,-1.74693 -36.57226,-5.94287 -38.97701,-13.51957 -0.89184,-2.80997 -2.64804,-3.68758 -5.7539,-2.87538 -2.95896,0.77379 -7.0967,-0.99593 -12.23899,-5.23465 -4.27281,-3.522 -8.47488,-6.40364 -9.33793,-6.40364 -3.836268,0 -21.909997,-14.07088 -24.018851,-18.69932 -1.28401,-2.81809 -4.053826,-5.66946 -6.155148,-6.33639 -6.87836,-2.18312 -8.954109,-6.49429 -6.120862,-12.71261 1.412064,-3.09913 4.226553,-6.1614 6.254418,-6.80501 2.027866,-0.64361 4.691838,-3.35191 5.919936,-6.01844 2.67122,-5.79993 17.815739,-11.46673 36.460067,-13.64269 7.172,-0.83704 14.34172,-2.56471 15.93271,-3.83926 2.62873,-2.10589 7.52731,-3.19993 30.79395,-6.87731 28.53693,-4.51041 50.05443,-8.32044 57.05,-10.10164 l 8.15,-2.07514 0,-119.28907 0,-119.28905 -11.882,1.22632 c -14.73053,1.52032 -21.66338,-2.37084 -25.18879,-14.13762 -2.37508,-7.92736 -1.88643,-9.47282 11.85699,-37.49878 15.3867,-31.37704 25.68756,-43.77808 38.49111,-46.33878 3.7543,-0.75087 14.28327,-1.34236 23.39769,-1.31444 13.89653,0.0426 18.31479,1.00737 27.36983,5.97666 14.46305,7.93714 16.47756,14.67653 10.76113,36.00066 -3.90122,14.55285 -4.17263,24.2823 -4.17263,149.58767 0,73.71231 0.69053,134.71285 1.53453,135.55673 1.7311,1.73089 94.88219,-2.32477 96.77066,-4.21324 1.90064,-1.90065 4.9043,-231.5003 3.18569,-243.51479 l -1.53154,-10.70682 -7.59967,6.60578 c -10.61532,9.22707 -15.81498,11.58991 -25.50463,11.58991 -11.50535,0 -24.47002,-8.65775 -42.42669,-28.33238 -11.94535,-13.08822 -14.64835,-17.3872 -14.64835,-23.2975 0,-9.87979 8.15637,-17.91678 18.18289,-17.91678 6.45295,0 9.65282,2.19048 22.66426,15.51485 17.66276,18.08758 16.22228,18.28958 36.14909,-5.06902 16.56289,-19.41531 24.27798,-22.39917 57.9156,-22.39917 23.95811,0 25.5243,0.27886 32.82485,5.84436 4.2165,3.2144 8.76244,8.5934 10.10211,11.95334 1.33966,3.35993 4.92951,25.66897 7.97746,49.57564 3.04795,23.90666 6.85436,53.24666 8.4587,65.2 1.67429,12.47441 2.15627,23.76816 1.13135,26.50966 -3.01515,8.06518 -11.71366,12.26973 -22.36388,10.80995 l -9.40284,-1.28879 -1.09308,60.22459 c -0.60119,33.12351 -0.62757,66.33709 -0.0587,73.80792 l 1.03451,13.58333 7.2613,0 c 3.99369,0 15.36766,1.8403 25.27543,4.08954 9.90779,2.24925 19.48117,4.1692 21.27417,4.26656 5.60922,0.30459 33.27997,8.27536 42.38,12.20787 4.78133,2.06624 13.58333,6.06695 19.56,8.8905 5.97667,2.82353 13.31167,5.77633 16.3,6.56175 2.98833,0.78542 10.07883,3.39251 15.75667,5.79354 8.64591,3.65616 10.30838,5.29316 10.23133,10.07453 -0.17452,10.8312 -23.62863,21.12298 -59.87083,26.27163 -17.93224,2.54749 -28.19883,6.43413 -37.36145,14.14396 -4.00513,3.3701 -7.95622,4.99513 -10.1233,4.16355 -2.00887,-0.77089 -5.37389,0.28277 -7.73909,2.42324 -2.32381,2.10303 -5.73983,3.19043 -7.68168,2.44528 -2.05194,-0.7874 -6.43592,0.89981 -10.60944,4.08309 -4.25403,3.24472 -10.08709,5.463 -14.51402,5.51961 -4.07084,0.0522 -11.80252,1.04548 -17.18152,2.20763 -5.379,1.16213 -16.626,3.14636 -24.99333,4.40941 -8.36734,1.26303 -17.16934,3.18054 -19.56,4.26113 -2.39067,1.08058 -14.61567,2.37886 -27.16667,2.88505 -12.551,0.50621 -39.446,2.60824 -59.76666,4.67119 -38.21003,3.87907 -135.96395,6.69589 -138.66419,3.99565 z M 414.29418,294.22957 c -11.89285,-6.05179 -19.2716,-19.13812 -19.07157,-33.82378 0.18995,-13.9501 5.08393,-23.30097 16.59868,-31.71534 8.46733,-6.18747 10.18492,-6.61321 22.75328,-5.63984 22.72218,1.75974 35.30541,15.09961 35.30541,37.42835 0,12.29396 -6.30467,25.15302 -15.56533,31.7472 -9.93978,7.07774 -28.24744,7.99422 -40.02047,2.00341 z M 236.2515,288.55164 c -14.8017,-7.71783 -22.82485,-20.88587 -22.82485,-37.46148 0,-13.61201 6.46645,-23.66959 19.57754,-30.44989 13.07806,-6.76321 33.07066,-5.68912 45.34908,2.43636 23.87437,15.79931 19.31356,54.30252 -7.80681,65.90655 -9.31599,3.98604 -26.23085,3.7732 -34.29496,-0.43154 z"
         id="path3107"
         inkscape:connector-curvature="0" />
      <path
         style="fill:#d2d2d2"
         d="m 206.90665,711.48351 c -4.18366,-2.2604 -13.84383,-5.8213 -21.46701,-7.91313 -12.06598,-3.31092 -14.24224,-4.71735 -16.81038,-10.8638 -1.62255,-3.88327 -3.94291,-7.67411 -5.15635,-8.42406 -3.54355,-2.19002 -2.54151,-9.47441 1.59708,-11.61001 4.57708,-2.36187 19.67762,-5.64571 42.12065,-9.1598 l 16.58397,-2.59667 1.34603,-9.82027 c 1.77023,-12.91528 1.74862,-243.55052 -0.0237,-252.41189 -1.17229,-5.86144 -2.03354,-6.60718 -5.97666,-5.17495 -10.02815,3.64244 -21.24853,1.74043 -26.62825,-4.51388 -5.90466,-6.86458 -6.45391,-12.41925 -2.03867,-20.61755 1.70872,-3.17276 8.10799,-16.49637 14.22062,-29.60801 12.4409,-26.68587 15.08845,-30.28534 26.59603,-36.15857 11.51534,-5.87718 34.3421,-5.74437 39.74997,0.23126 2.77778,3.06941 6.6938,4.34667 13.32672,4.34667 7.64051,0 10.06251,1.02169 12.98102,5.4759 3.71546,5.67052 3.4794,12.58116 -1.14926,33.6441 -2.35294,10.70719 -3.26391,281.70955 -0.98526,293.10284 1.12142,5.60709 2.15914,6.5639 6.05773,5.58542 2.58746,-0.64941 23.91382,-1.87226 47.39192,-2.71745 23.47809,-0.84519 43.46784,-2.3171 44.42165,-3.27091 2.64802,-2.64801 5.20831,-115.08022 4.57463,-200.89009 l -0.56583,-76.62353 -11.67016,9.57389 c -21.73601,17.83162 -32.36313,15.69117 -59.5065,-11.98548 -16.30259,-16.62288 -19.01667,-20.43472 -19.01667,-26.70838 0,-14.18844 13.38617,-21.93384 24.87848,-14.395 3.44986,2.26308 11.40376,9.67242 17.67535,16.4652 11.34571,12.28861 11.42832,12.3311 16.48119,8.47771 2.79308,-2.13004 10.36884,-10.11919 16.83503,-17.75366 15.95331,-18.83567 20.21776,-20.72694 49.35503,-21.88879 26.62742,-1.06178 36.44193,0.98244 44.15989,9.19782 6.11322,6.50724 7.77706,14.04516 13.07562,59.23876 2.35568,20.0924 5.93748,47.588 7.95957,61.10131 3.61278,24.14367 3.60102,24.6712 -0.67773,30.42667 -4.78592,6.43765 -16.81388,8.92079 -24.16208,4.98817 -3.84951,-2.06019 -4.21596,-1.0211 -5.51231,15.63096 -0.76375,9.81084 -1.39452,49.40906 -1.40169,87.99607 -0.0109,54.28767 0.60151,70.32744 2.70365,70.9063 1.49417,0.41146 9.10066,1.72276 16.90332,2.91403 11.09723,1.69427 16.65779,4.00124 25.53432,10.5937 17.10717,12.70528 15.78057,14.64416 -14.72764,21.52484 -8.965,2.02194 -24.80691,6.9812 -35.20426,11.02061 -28.46113,11.05724 -85.85164,20.29243 -126.70907,20.3898 -10.758,0.0256 -27.22554,1.51344 -36.59452,3.30622 -10.67261,2.04226 -29.34122,3.22562 -49.98667,3.16853 -28.07529,-0.0776 -34.07791,-0.69934 -40.55881,-4.2009 z m 215.16,-415.4563 c -9.75397,-2.83561 -20.9618,-13.60203 -24.11933,-23.1694 -5.19387,-15.73757 2.49933,-36.99083 16.00654,-44.21966 14.98982,-8.02232 35.99526,-4.83656 45.92585,6.96527 23.65823,28.11622 -2.90963,70.57066 -37.81306,60.42379 z m -183.73657,-8.13683 c -32.81484,-14.90572 -31.55922,-60.30803 1.77241,-64.08873 17.4497,-1.97925 37.52428,1.27684 43.71223,7.09012 15.58296,14.63943 8.58245,46.38855 -12.47619,56.58287 -11.41259,5.52474 -21.48181,5.65156 -33.00845,0.41574 z"
         id="path3105"
         inkscape:connector-curvature="0" />
      <path
         style="fill:#cdcdcd"
         d="m 247.11332,699.2649 c -22.55142,-4.81455 -27.5487,-6.38926 -30.45007,-9.59525 -4.0865,-4.51553 -2.5089,-9.33262 4.23919,-12.94409 3.34626,-1.79087 5.51727,-5.40723 6.38082,-10.6289 1.80776,-10.93098 1.32993,-250.94046 -0.52631,-264.36781 -1.10904,-8.02221 -2.33921,-10.6569 -4.69962,-10.06528 -1.75853,0.44078 -7.27949,1.29309 -12.26877,1.89404 -7.66607,0.92334 -9.93878,0.22527 -14.67,-4.50595 -3.07922,-3.07922 -5.59857,-8.01634 -5.59857,-10.97137 0,-4.42374 2.20745,-6.39082 12.49666,-11.13588 6.87317,-3.1697 16.40022,-6.44551 21.1712,-7.27959 10.37532,-1.81386 13.11188,-7.86925 4.31613,-9.55066 -3.95703,-0.75644 -7.56876,0.487 -11.83038,4.07292 -12.78148,10.75491 -13.69278,6.47591 -4.2051,-19.74462 6.30069,-17.41279 7.4719,-19.1026 18.15496,-26.1936 13.57912,-9.01331 26.91076,-10.50934 28.81347,-3.23335 0.62518,2.39067 2.36987,4.34667 3.87709,4.34667 1.50721,0 4.04423,1.57102 5.63781,3.49115 2.20806,2.66054 5.64043,3.26367 14.42684,2.53503 17.30769,-1.43529 18.27778,1.35116 11.66226,33.49779 -2.96703,14.41757 -2.4944,311.20485 0.50524,317.26449 1.13804,2.29898 5.83051,4.1771 12.84768,5.14222 13.91548,1.91386 23.80147,10.23207 18.48231,15.55124 -6.15167,6.15166 -32.01444,12.33488 -53.76951,12.85509 -11.35566,0.27154 -22.60266,0.0761 -24.99333,-0.43429 z m 139.09333,-25.60268 c -28.71091,-6.06638 -30.02819,-12.56666 -4.14231,-20.44065 l 12.83564,-3.90435 1.3817,-65.1142 c 3.1672,-149.25756 3.80809,-220.40149 1.99555,-221.5217 -1.05072,-0.64939 -6.94186,3.11409 -13.09144,8.36328 -14.62093,12.48017 -21.70723,13.8407 -35.83133,6.8794 -14.79958,-7.29421 -42.47448,-37.38835 -42.47448,-46.18744 0,-14.2883 12.96533,-21.05286 25.53615,-13.3233 3.88455,2.38854 10.64566,8.71518 15.02469,14.05922 12.56317,15.33167 13.88773,15.45642 26.04016,2.45247 22.96387,-24.57291 25.70286,-26.72424 37.48754,-29.44447 15.4118,-3.55747 46.4402,-3.37654 55.17793,0.32175 15.20347,6.43494 16.7288,10.76977 23.19412,65.91497 2.35568,20.0924 5.93748,47.588 7.95957,61.10131 3.61278,24.14367 3.60102,24.6712 -0.67773,30.42667 -4.811,6.4714 -16.82379,8.91549 -24.25983,4.93585 -3.18924,-1.70682 -4.5066,-1.51611 -5.38772,0.78001 -0.64143,1.6716 -1.36442,44.21369 -1.60659,94.53796 -0.39435,81.94679 -0.0702,91.90762 3.10489,95.41609 4.3007,4.75221 1.38261,9.82562 -7.55681,13.1383 -9.68366,3.58846 -60.1927,4.67615 -74.7097,1.60883 z m 34.77333,-379.06116 c -22.88259,-8.10126 -31.94952,-36.97252 -17.54284,-55.86063 19.69748,-25.82475 59.91806,-15.89948 65.3279,16.12103 1.79059,10.5984 -5.08436,27.27442 -14.24511,34.55324 -6.67705,5.30534 -25.13986,8.16029 -33.53995,5.18636 z m -182.6004,-7.82757 c -17.39542,-7.57967 -26.6423,-28.91755 -19.16414,-44.22269 l 3.99121,-8.16862 23.90667,-0.6523 c 33.10299,-0.90322 37.59404,0.15674 41.63426,9.8264 6.13363,14.67982 -1.69872,34.27629 -16.77335,41.96679 -9.59283,4.89389 -24.00199,5.43021 -33.59465,1.25042 z"
         id="path3103"
         inkscape:connector-curvature="0" />
      <path
         style="fill:#b9b9b9"
         d="m 247.11332,699.2649 c -22.55142,-4.81455 -27.5487,-6.38926 -30.45007,-9.59525 -4.0865,-4.51553 -2.5089,-9.33262 4.23919,-12.94409 3.34626,-1.79087 5.51727,-5.40723 6.38082,-10.6289 1.80776,-10.93098 1.32993,-250.94046 -0.52631,-264.36781 -1.10904,-8.02221 -2.33921,-10.6569 -4.69962,-10.06528 -1.75853,0.44078 -7.27949,1.29309 -12.26877,1.89404 -7.66607,0.92334 -9.93878,0.22527 -14.67,-4.50595 -3.07922,-3.07922 -5.59857,-8.01634 -5.59857,-10.97137 0,-4.42374 2.20745,-6.39082 12.49666,-11.13588 6.87317,-3.1697 16.40022,-6.44551 21.1712,-7.27959 10.37532,-1.81386 13.11188,-7.86925 4.31613,-9.55066 -3.95703,-0.75644 -7.56876,0.487 -11.83038,4.07292 -12.78148,10.75491 -13.69278,6.47591 -4.2051,-19.74462 6.30069,-17.41279 7.4719,-19.1026 18.15496,-26.1936 13.57912,-9.01331 26.91076,-10.50934 28.81347,-3.23335 0.62518,2.39067 2.36987,4.34667 3.87709,4.34667 1.50721,0 4.04423,1.57102 5.63781,3.49115 2.20806,2.66054 5.64043,3.26367 14.42684,2.53503 17.30769,-1.43529 18.27778,1.35116 11.66226,33.49779 -2.96703,14.41757 -2.4944,311.20485 0.50524,317.26449 1.13804,2.29898 5.83051,4.1771 12.84768,5.14222 13.91548,1.91386 23.80147,10.23207 18.48231,15.55124 -6.15167,6.15166 -32.01444,12.33488 -53.76951,12.85509 -11.35566,0.27154 -22.60266,0.0761 -24.99333,-0.43429 z m 139.09333,-25.60268 c -14.1128,-2.98192 -22.82,-6.82539 -22.82,-10.07307 0,-3.12036 8.63122,-7.77451 20.06204,-10.8179 5.65512,-1.50562 11.34969,-4.02394 12.6546,-5.59629 3.6361,-4.38122 5.84892,-287.82611 2.24701,-287.82611 -1.46878,0 -7.33902,3.93655 -13.04498,8.74788 -20.96627,17.67902 -31.60378,15.55763 -58.322,-11.63088 -19.48172,-19.82464 -21.81988,-25.82714 -13.35694,-34.29006 7.34437,-7.34438 15.98243,-4.08556 32.42815,12.23398 7.79966,7.73983 15.13466,14.10035 16.3,14.13451 1.16532,0.0342 10.43179,-8.85506 20.59212,-19.75382 20.80299,-22.31489 23.55054,-23.50357 54.73518,-23.6803 19.33741,-0.10958 24.53574,1.47356 34.99632,10.65806 8.39484,7.37078 7.86222,4.98661 15.56239,69.66063 1.77898,14.94166 4.74467,36.94177 6.59044,48.88913 3.19845,20.70315 3.16611,21.97796 -0.68908,27.16667 -5.08871,6.84891 -16.41032,8.40962 -22.3052,3.07483 -2.2862,-2.06897 -4.77871,-3.13975 -5.53896,-2.37952 -0.76023,0.76023 -2.2502,43.47169 -3.31103,94.91434 l -1.92879,93.53209 5.36935,5.79061 c 6.42494,6.929 4.73041,12.09025 -5.09379,15.51499 -10.62767,3.70484 -60.3606,4.85021 -75.12683,1.73023 z m 32.6,-380.40801 c -18.7059,-8.31391 -25.50326,-28.99395 -15.98967,-48.64642 7.11945,-14.70683 22.71181,-19.19441 44.1941,-12.71934 13.16521,3.96818 19.12433,14.10985 18.09754,30.79973 -0.95855,15.5804 -5.57475,23.00426 -18.19147,29.25575 -10.1642,5.03627 -18.81948,5.43971 -28.1105,1.31028 z m -180.42707,-6.48072 c -17.39542,-7.57967 -26.6423,-28.91755 -19.16414,-44.22269 l 3.99121,-8.16862 23.90667,-0.6523 c 33.10299,-0.90322 37.59404,0.15674 41.63426,9.8264 6.13363,14.67982 -1.69872,34.27629 -16.77335,41.96679 -9.59283,4.89389 -24.00199,5.43021 -33.59465,1.25042 z"
         id="path3101"
         inkscape:connector-curvature="0" />
      <path
         style="fill:#b1b1b1"
         d="m 247.11332,699.2649 c -22.55142,-4.81455 -27.5487,-6.38926 -30.45007,-9.59525 -4.0865,-4.51553 -2.5089,-9.33262 4.23919,-12.94409 3.34626,-1.79087 5.51727,-5.40723 6.38082,-10.6289 1.80776,-10.93098 1.32993,-250.94046 -0.52631,-264.36781 -1.10904,-8.02221 -2.33921,-10.6569 -4.69962,-10.06528 -1.75853,0.44078 -7.27949,1.29309 -12.26877,1.89404 -7.66607,0.92334 -9.93878,0.22527 -14.67,-4.50595 -3.07922,-3.07922 -5.59857,-8.01634 -5.59857,-10.97137 0,-4.42374 2.20745,-6.39082 12.49666,-11.13588 6.87317,-3.1697 16.40022,-6.44551 21.1712,-7.27959 10.37532,-1.81386 13.11188,-7.86925 4.31613,-9.55066 -3.95703,-0.75644 -7.56876,0.487 -11.83038,4.07292 -12.78148,10.75491 -13.69278,6.47591 -4.2051,-19.74462 6.30069,-17.41279 7.4719,-19.1026 18.15496,-26.1936 13.57912,-9.01331 26.91076,-10.50934 28.81347,-3.23335 0.62518,2.39067 2.36987,4.34667 3.87709,4.34667 1.50721,0 4.04423,1.57102 5.63781,3.49115 2.20806,2.66054 5.64043,3.26367 14.42684,2.53503 17.30769,-1.43529 18.27778,1.35116 11.66226,33.49779 -2.96703,14.41757 -2.4944,311.20485 0.50524,317.26449 1.13804,2.29898 5.83051,4.1771 12.84768,5.14222 13.91548,1.91386 23.80147,10.23207 18.48231,15.55124 -6.15167,6.15166 -32.01444,12.33488 -53.76951,12.85509 -11.35566,0.27154 -22.60266,0.0761 -24.99333,-0.43429 z m 139.09333,-25.60268 c -14.1128,-2.98192 -22.82,-6.82539 -22.82,-10.07307 0,-3.12036 8.63122,-7.77451 20.06204,-10.8179 5.65512,-1.50562 11.34969,-4.02394 12.6546,-5.59629 3.6361,-4.38122 5.84892,-287.82611 2.24701,-287.82611 -1.46878,0 -7.33902,3.93655 -13.04498,8.74788 -21.00015,17.7076 -31.58926,15.57243 -58.48,-11.79176 -14.98225,-15.24602 -17.9676,-19.41935 -17.38667,-24.30543 0.92888,-7.81282 6.83085,-11.56543 12.56124,-7.98675 2.34754,1.46607 5.85511,2.05665 7.79457,1.3124 2.43913,-0.93598 7.82378,2.90609 17.46503,12.46163 l 13.9387,13.8148 6.39473,-3.77745 c 5.91479,-3.49397 6.54521,-3.50852 8.40013,-0.19397 1.65471,2.95679 2.33609,3.05957 3.89615,0.58773 1.0399,-1.64767 2.03476,-5.6051 2.2108,-8.79431 0.37758,-6.8397 10.51283,-22.53889 18.24442,-28.26003 10.55023,-7.80683 56.58093,-7.54818 54.78234,0.30782 -0.34458,1.50517 2.83392,9.54823 7.06334,17.87346 7.3772,14.52131 7.69001,16.07974 7.69286,38.32705 0.004,30.98541 7.65513,74.26359 13.1291,74.26359 1.06057,0 3.13204,-2.2005 4.60328,-4.89 2.59007,-4.73485 2.75959,-4.61419 5.34277,3.80333 3.8443,12.52696 3.55779,19.46987 -0.97259,23.56982 -5.10484,4.61983 -15.20619,4.61384 -20.31773,-0.013 -2.19329,-1.98488 -4.46181,-3.13488 -5.04116,-2.55551 -1.96574,1.96573 -5.36163,89.60023 -5.40091,139.37593 -0.0391,49.5344 -0.0387,49.53863 5.2659,55.25939 6.36007,6.85902 4.63231,12.03262 -5.15814,15.44558 -10.62767,3.70483 -60.3606,4.8502 -75.12683,1.73023 z m 95.04421,-299.10004 c 0,-4.18367 0.44727,-5.89517 0.99393,-3.80333 0.54664,2.09183 0.54664,5.51483 0,7.60666 -0.54666,2.09184 -0.99393,0.38034 -0.99393,-3.80333 z m -2.48153,-24.01533 0.19603,-9.67134 2.11613,7.3592 c 1.44057,5.00986 1.378,8.09731 -0.19603,9.67133 -1.63398,1.63396 -2.25466,-0.52457 -2.11613,-7.35919 z m -60.07044,-57.28167 c -20.18933,-8.79393 -26.91871,-36.67761 -12.48701,-51.74104 5.85602,-6.11237 11.5081,-7.97044 11.5081,-3.78317 0,1.24967 2.40056,4.67267 5.33456,7.60667 4.27977,4.27978 7.54288,5.33454 16.50346,5.33454 9.34114,0 11.35493,-0.71133 12.30559,-4.34667 1.57271,-6.01407 5.93755,-5.4337 10.40429,1.38339 4.8551,7.40981 3.59869,25.89748 -2.31421,34.0532 -5.17938,7.14396 -19.69998,14.57906 -28.24985,14.46501 -3.50746,-0.0468 -9.35966,-1.38416 -13.00493,-2.97193 z m -180.31931,-6.49169 c -17.39542,-7.57967 -26.6423,-28.91755 -19.16414,-44.22269 l 3.99121,-8.16862 23.90667,-0.6523 c 33.10299,-0.90322 37.59404,0.15674 41.63426,9.8264 6.13363,14.67982 -1.69872,34.27629 -16.77335,41.96679 -9.59283,4.89389 -24.00199,5.43021 -33.59465,1.25042 z"
         id="path3099"
         inkscape:connector-curvature="0" />
      <path
         style="fill:#a7a7a7"
         d="m 254.71999,695.43453 c -4.18367,-1.64924 -11.27417,-4.60634 -15.75667,-6.57132 l -8.15,-3.5727 -0.21494,-135.26083 c -0.11823,-74.39346 -0.85171,-140.63983 -1.63,-147.21417 -1.38318,-11.6841 -1.56191,-11.94086 -7.93506,-11.39911 -17.78836,1.51203 -20.64184,1.2105 -24.88523,-2.62973 -7.39266,-6.69026 -5.57621,-11.40965 6.8066,-17.6845 6.19376,-3.13862 15.61094,-6.3336 20.92709,-7.09996 10.36421,-1.49406 16.90594,-7.75734 13.63316,-13.05283 -0.99953,-1.61729 -6.3393,-3.45023 -11.86616,-4.07318 -5.52683,-0.62296 -10.02993,-1.73896 -10.00687,-2.48 0.0231,-0.74105 1.30993,-6.23735 2.85972,-12.21402 l 2.81781,-10.86667 12.90006,-0.17775 c 7.09504,-0.0978 15.03486,-1.32027 17.64405,-2.71667 11.37038,-6.08524 12.25215,-0.60913 2.92463,18.16309 -3.54848,7.14156 -6.48248,14.76046 -6.52,16.93087 -0.0865,5.00953 -3.7112,12.07148 -9.4039,18.3219 -2.44524,2.68478 -3.78616,5.54113 -2.97986,6.34746 2.70067,2.70065 12.68595,-8.91856 19.92223,-23.18223 3.94173,-7.76967 9.47845,-16.2794 12.30381,-18.91051 5.94454,-5.53586 25.4837,-14.65977 27.36515,-12.7783 0.70093,0.70091 -0.36486,9.82913 -2.36839,20.28493 -3.2011,16.70562 -3.62953,37.58761 -3.53368,172.23054 0.06,84.271 0.97813,157.621 2.0403,163 1.63456,8.27769 1.306,10.4186 -2.13884,13.93716 -5.22704,5.3389 -24.27172,6.80116 -34.75501,2.66852 z m 168.95795,-26.409 c -6.88347,-1.72943 -15.36302,-4.61699 -18.84343,-6.41677 l -6.32803,-3.27237 1.21845,-149.99377 c 0.94747,-116.6368 0.63316,-149.99377 -1.41334,-149.99377 -1.44748,0 -7.30031,3.93655 -13.00627,8.74788 -21.00015,17.7076 -31.58926,15.57243 -58.48,-11.79176 -14.98225,-15.24602 -17.9676,-19.41935 -17.38667,-24.30543 0.92888,-7.81282 6.83085,-11.56543 12.56124,-7.98675 2.34754,1.46607 5.85511,2.05665 7.79457,1.3124 2.43913,-0.93598 7.82378,2.90609 17.46503,12.46163 l 13.9387,13.8148 6.54473,-3.86606 c 5.88839,-3.47836 6.67744,-3.52024 7.86803,-0.41759 1.81787,4.73726 7.87645,-0.22828 6.30802,-5.16997 -1.35503,-4.26929 5.88808,-18.59235 13.49816,-26.69224 6.27452,-6.67839 20.75524,-10.55732 38.16649,-10.22361 14.20745,0.27231 22.35284,2.61728 21.54314,6.20205 -0.34458,1.52564 2.83392,9.58544 7.06334,17.91068 7.3772,14.52131 7.69001,16.07974 7.69286,38.32705 0.004,30.98541 7.65513,74.26358 13.1291,74.26358 1.06057,0 3.13204,-2.2005 4.60328,-4.89 2.59007,-4.73484 2.75959,-4.61418 5.34277,3.80334 3.8443,12.52696 3.55779,19.46987 -0.97259,23.56982 -4.95668,4.48574 -16.32943,4.67792 -19.93221,0.33684 -1.48806,-1.793 -3.44751,-3.26 -4.35434,-3.26 -2.81175,0 -4.78591,39.10985 -6.22034,123.22959 -0.97028,56.90091 -2.12739,81.59784 -3.90632,83.37565 -3.9426,3.94015 -20.13426,4.38192 -33.89437,0.92478 z m 57.57292,-294.46335 c 0,-4.18367 0.44727,-5.89517 0.99393,-3.80333 0.54664,2.09183 0.54664,5.51483 0,7.60666 -0.54666,2.09184 -0.99393,0.38034 -0.99393,-3.80333 z m -2.48153,-24.01533 0.19603,-9.67134 2.11613,7.3592 c 1.44057,5.00986 1.378,8.09731 -0.19603,9.67133 -1.63398,1.63396 -2.25466,-0.52457 -2.11613,-7.35919 z m -62.77356,-60.02457 c -4.03782,-1.99004 -9.60253,-7.69964 -12.76703,-13.09947 -7.34328,-12.53038 -6.30793,-26.2009 2.69617,-35.59916 6.10213,-6.36924 11.79507,-8.33977 11.79507,-4.08268 0,1.24967 2.40056,4.67267 5.33456,7.60667 4.27977,4.27978 7.54288,5.33454 16.50346,5.33454 9.34114,0 11.35493,-0.71133 12.30559,-4.34667 2.89492,-11.07021 13.66972,0.94609 13.66972,15.2448 0,24.75675 -26.55276,40.27002 -49.53754,28.94197 z m -173.29756,-2.93374 c -15.37542,-4.69351 -28.50057,-26.24322 -23.14408,-37.99944 2.46473,-5.40949 2.57007,-5.42692 32.79068,-5.42692 35.5468,0 38.53666,1.31318 36.20393,15.90118 -3.31896,20.7557 -25.13105,33.85002 -45.85053,27.52518 z"
         id="path3097"
         inkscape:connector-curvature="0" />
      <path
         style="fill:#a0a0a0"
         d="m 254.71999,695.43453 c -4.18367,-1.64924 -11.27417,-4.60634 -15.75667,-6.57132 l -8.15,-3.5727 -0.21494,-135.26083 c -0.11823,-74.39346 -0.85171,-140.63983 -1.63,-147.21417 -1.38318,-11.6841 -1.56191,-11.94086 -7.93506,-11.39911 -17.78836,1.51203 -20.64184,1.2105 -24.88523,-2.62973 -7.39266,-6.69026 -5.57621,-11.40965 6.8066,-17.6845 6.19376,-3.13862 15.61094,-6.3336 20.92709,-7.09996 10.36421,-1.49406 16.90594,-7.75734 13.63316,-13.05283 -0.99953,-1.61729 -6.3393,-3.45023 -11.86616,-4.07318 -5.52683,-0.62296 -10.02993,-1.73896 -10.00687,-2.48 0.0231,-0.74105 1.30993,-6.23735 2.85972,-12.21402 l 2.81781,-10.86667 12.90006,-0.17775 c 7.09504,-0.0978 15.03486,-1.32027 17.64405,-2.71667 11.37038,-6.08524 12.25215,-0.60913 2.92463,18.16309 -3.54848,7.14156 -6.48248,14.76046 -6.52,16.93087 -0.0865,5.00953 -3.7112,12.07148 -9.4039,18.3219 -2.44524,2.68478 -3.78616,5.54113 -2.97986,6.34746 2.70067,2.70065 12.68595,-8.91856 19.92223,-23.18223 3.94173,-7.76967 9.47845,-16.2794 12.30381,-18.91051 5.94454,-5.53586 25.4837,-14.65977 27.36515,-12.7783 0.70093,0.70091 -0.36486,9.82913 -2.36839,20.28493 -3.2011,16.70562 -3.62953,37.58761 -3.53368,172.23054 0.06,84.271 0.97813,157.621 2.0403,163 1.63456,8.27769 1.306,10.4186 -2.13884,13.93716 -5.22704,5.3389 -24.27172,6.80116 -34.75501,2.66852 z m 168.95795,-26.409 c -6.88347,-1.72943 -15.36302,-4.61699 -18.84343,-6.41677 l -6.32803,-3.27237 1.21845,-149.99377 c 0.94747,-116.6368 0.63316,-149.99377 -1.41334,-149.99377 -1.44748,0 -7.30031,3.93655 -13.00627,8.74788 -20.96627,17.67902 -31.60378,15.55763 -58.322,-11.63088 -13.4269,-13.66324 -17.93,-19.70325 -17.93,-24.04951 0,-6.65186 5.06445,-9.58104 9.78778,-5.66104 1.76681,1.46634 6.1171,2.23975 9.66727,1.71869 5.48862,-0.80555 8.16449,0.78376 17.87566,10.61708 8.44566,8.55187 13.0219,11.56444 17.56699,11.56444 4.60351,0 5.98588,0.93485 5.50757,3.72455 -1.19246,6.95476 6.40062,5.4227 12.45325,-2.51269 4.27957,-5.6108 5.57742,-9.35756 4.74671,-13.70316 -1.39921,-7.31953 2.67148,-17.41193 9.59133,-23.77952 6.06556,-5.58147 20.19405,-9.24146 35.96234,-9.31605 13.26649,-0.0627 18.10776,1.45444 18.10776,5.6747 0,1.69921 3.02667,9.08525 6.72592,16.41343 6.29982,12.47988 6.84127,15.47059 8.54657,47.20803 1.91912,35.7168 6.00218,60.52353 11.81065,71.75586 2.92803,5.66218 4.16063,6.39714 7.62199,4.54468 6.36672,-3.40736 8.5592,-2.68607 10.06438,3.31107 2.88632,11.5 -13.95325,18.99902 -23.4217,10.4302 -2.19329,-1.98489 -4.46081,-3.13586 -5.03894,-2.55773 -2.1706,2.17059 -6.18151,96.22731 -6.3519,148.95311 -0.12453,38.51745 -0.92692,55.51687 -2.70464,57.29565 -3.94054,3.94293 -20.12992,4.38614 -33.89437,0.92789 z m -7.68217,-378.50325 c -4.03782,-1.99004 -9.60253,-7.69964 -12.76703,-13.09947 -6.97738,-11.90601 -6.29787,-27.42281 1.47663,-33.7182 6.41917,-5.19794 8.38702,-4.91096 10.8561,1.58321 1.1443,3.00977 4.60677,6.43277 7.69436,7.60667 8.72548,3.31742 27.26833,2.62326 31.46871,-1.17804 6.2323,-5.64014 10.80877,-1.79301 10.80877,9.08618 0,12.38513 -4.51073,20.95751 -14.65474,27.85056 -9.58677,6.51436 -23.90121,7.28136 -34.8828,1.86909 z m -173.29756,-2.93374 c -15.37542,-4.69351 -28.50057,-26.24322 -23.14408,-37.99944 2.46473,-5.40949 2.57007,-5.42692 32.79068,-5.42692 35.5468,0 38.53666,1.31318 36.20393,15.90118 -3.31896,20.7557 -25.13105,33.85002 -45.85053,27.52518 z"
         id="path3095"
         inkscape:connector-curvature="0" />
      <path
         style="fill:#9a9a9a"
         d="m 254.71999,695.43453 c -4.18367,-1.64924 -11.27417,-4.60634 -15.75667,-6.57132 l -8.15,-3.5727 -0.21494,-135.26083 c -0.11823,-74.39346 -0.85171,-140.63983 -1.63,-147.21417 -1.38318,-11.6841 -1.56191,-11.94086 -7.93506,-11.39911 -17.78836,1.51203 -20.64184,1.2105 -24.88523,-2.62973 -7.39266,-6.69026 -5.57621,-11.40965 6.8066,-17.6845 6.19376,-3.13862 15.61094,-6.3336 20.92709,-7.09996 10.36421,-1.49406 16.90594,-7.75734 13.63316,-13.05283 -0.99953,-1.61729 -6.3393,-3.45023 -11.86616,-4.07318 -5.52683,-0.62296 -10.02993,-1.73896 -10.00687,-2.48 0.0231,-0.74105 1.30993,-6.23735 2.85972,-12.21402 l 2.81781,-10.86667 12.90006,-0.17775 c 7.09504,-0.0978 15.03486,-1.32027 17.64405,-2.71667 11.37038,-6.08524 12.25215,-0.60913 2.92463,18.16309 -3.54848,7.14156 -6.48248,14.76046 -6.52,16.93087 -0.0865,5.00953 -3.7112,12.07148 -9.4039,18.3219 -2.44524,2.68478 -3.78616,5.54113 -2.97986,6.34746 2.70067,2.70065 12.68595,-8.91856 19.92223,-23.18223 3.94173,-7.76967 9.47845,-16.2794 12.30381,-18.91051 5.94454,-5.53586 25.4837,-14.65977 27.36515,-12.7783 0.70093,0.70091 -0.36486,9.82913 -2.36839,20.28493 -3.2011,16.70562 -3.62953,37.58761 -3.53368,172.23054 0.06,84.271 0.97813,157.621 2.0403,163 1.63456,8.27769 1.306,10.4186 -2.13884,13.93716 -5.22704,5.3389 -24.27172,6.80116 -34.75501,2.66852 z M 423.67794,668.9139 c -19.07713,-4.62287 -26.26737,-8.95067 -24.4221,-14.69968 0.83421,-2.59896 2.01959,-70.98487 2.63421,-151.96871 1.24967,-164.6616 2.27194,-154.47182 -14.04714,-140.02064 -18.0719,16.00338 -24.80228,17.74871 -39.50946,10.24567 -9.68425,-4.94053 -34.46522,-31.39231 -36.36563,-38.81748 -1.70641,-6.66733 2.23297,-10.74887 6.75348,-6.99718 1.83271,1.52102 6.2369,2.33917 9.78707,1.81811 5.48862,-0.80555 8.16449,0.78376 17.87566,10.61708 8.44566,8.55187 13.0219,11.56444 17.56699,11.56444 4.60351,0 5.98588,0.93485 5.50757,3.72455 -1.19383,6.96278 6.40251,5.42024 12.46779,-2.53175 4.49519,-5.89349 5.6005,-9.26163 4.6307,-14.11069 -1.00934,-5.04668 0.17604,-8.16238 5.70784,-15.00333 9.30157,-11.50275 13.18718,-13.03311 37.41548,-14.73619 18.43832,-1.29609 20.63958,-1.06231 20.63958,2.19194 0,2.00352 3.02667,9.63855 6.72592,16.96673 6.29982,12.47988 6.84127,15.47059 8.54657,47.20803 1.91912,35.7168 6.00218,60.52353 11.81065,71.75586 2.92803,5.66218 4.16063,6.39714 7.62199,4.54468 5.78487,-3.09596 8.08293,-2.76633 9.67712,1.38804 1.72415,4.49306 -6.58696,13.7888 -12.32828,13.7888 -2.27424,0 -7.11288,-2.97788 -10.75252,-6.61752 -3.63964,-3.63964 -7.2319,-6.00333 -7.98281,-5.25264 -0.75093,0.75069 -2.13488,45.53809 -3.07546,99.52754 -0.96372,55.31711 -2.62378,99.80981 -3.80333,101.93646 -2.72591,4.91458 -2.68198,8.79991 0.0802,7.09283 1.19534,-0.73876 2.17334,0.20581 2.17334,2.09885 0,7.51934 -14.65668,9.29719 -35.33538,4.2862 z m -3.22286,-376.52862 c -15.03199,-2.18234 -24.53007,-27.00989 -16.51679,-43.17419 4.99067,-10.06716 8.77659,-11.41036 11.556,-4.09992 1.18127,3.10693 4.67395,6.60942 7.76154,7.78332 8.93638,3.3976 27.26953,2.62216 31.64608,-1.33855 5.42225,-4.90707 8.45807,-2.02933 8.45807,8.01764 0,11.54409 -4.85068,22.51461 -12.03688,27.2232 -6.01096,3.93853 -22.13087,6.85696 -30.86802,5.5885 z m -177.75687,-4.79674 c -15.37542,-4.69351 -28.50057,-26.24322 -23.14408,-37.99944 2.46473,-5.40949 2.57007,-5.42692 32.79068,-5.42692 35.5468,0 38.53666,1.31318 36.20393,15.90118 -3.31896,20.7557 -25.13105,33.85002 -45.85053,27.52518 z"
         id="path3093"
         inkscape:connector-curvature="0" />
      <path
         style="fill:#939393"
         d="m 254.71999,695.43453 c -4.18367,-1.64924 -11.27417,-4.60634 -15.75667,-6.57132 l -8.15,-3.5727 -0.21494,-135.26083 c -0.11823,-74.39346 -0.85171,-140.63983 -1.63,-147.21417 -1.38318,-11.6841 -1.56191,-11.94086 -7.93506,-11.39911 -17.78836,1.51203 -20.64184,1.2105 -24.88523,-2.62973 -7.39266,-6.69026 -5.57621,-11.40965 6.8066,-17.6845 6.19376,-3.13862 15.61094,-6.3336 20.92709,-7.09996 10.36421,-1.49406 16.90594,-7.75734 13.63316,-13.05283 -0.99953,-1.61729 -6.3393,-3.45023 -11.86616,-4.07318 -5.52683,-0.62296 -10.02993,-1.73896 -10.00687,-2.48 0.0231,-0.74105 1.30993,-6.23735 2.85972,-12.21402 l 2.81781,-10.86667 12.90006,-0.17775 c 7.09504,-0.0978 15.03486,-1.32027 17.64405,-2.71667 11.37038,-6.08524 12.25215,-0.60913 2.92463,18.16309 -3.54848,7.14156 -6.48248,14.76046 -6.52,16.93087 -0.0865,5.00953 -3.7112,12.07148 -9.4039,18.3219 -2.44524,2.68478 -3.78616,5.54113 -2.97986,6.34746 2.70067,2.70065 12.68595,-8.91856 19.92223,-23.18223 3.94173,-7.76967 9.47845,-16.2794 12.30381,-18.91051 5.94454,-5.53586 25.4837,-14.65977 27.36515,-12.7783 0.70093,0.70091 -0.36486,9.82913 -2.36839,20.28493 -3.2011,16.70562 -3.62953,37.58761 -3.53368,172.23054 0.06,84.271 0.97813,157.621 2.0403,163 1.63456,8.27769 1.306,10.4186 -2.13884,13.93716 -5.22704,5.3389 -24.27172,6.80116 -34.75501,2.66852 z M 423.67794,668.9139 c -6.88347,-1.66803 -15.53566,-4.59464 -19.22711,-6.50354 -5.50482,-2.84666 -6.41525,-4.32048 -5.06305,-8.19614 0.90678,-2.59896 2.05085,-70.98487 2.54241,-151.96871 0.99772,-164.37614 2.01362,-154.27862 -14.08728,-140.02064 -12.60977,11.16645 -18.37747,14.51064 -25.02641,14.51064 -9.67027,0 -21.7201,-7.40194 -34.09865,-20.94603 -21.34467,-23.35449 -21.95005,-27.35942 -3.84732,-25.45285 10.05991,1.05951 12.51892,2.40522 21.64219,11.84377 5.96532,6.17149 12.23212,10.64845 14.90561,10.64845 3.89185,0 4.38941,0.89029 3.1833,5.69587 -1.34295,5.35066 -1.06085,5.60383 4.65439,4.17734 10.92626,-2.72715 21.73803,-16.83771 19.48952,-25.43599 -1.66984,-6.38549 6.96094,-21.00629 14.84777,-25.15253 4.54597,-2.3899 19.6031,-3.71503 35.31667,-3.10811 6.69537,0.2586 9.23667,1.27356 9.23667,3.689 0,1.83274 2.6018,8.43424 5.78176,14.67 3.57487,7.01012 5.95656,15.48557 6.23968,22.20442 1.64795,39.10748 8.17187,83.94439 14.30788,98.33379 3.74298,8.77755 4.20625,9.1034 9.50831,6.68763 7.98883,-3.63997 12.15945,0.69844 6.58883,6.85389 -5.62558,6.21623 -11.42869,5.46908 -18.79844,-2.42027 -3.50307,-3.75004 -6.99909,-6.18841 -7.76891,-5.4186 -1.44313,1.44314 -3.55424,44.75839 -6.28984,129.05356 -0.86312,26.59616 -2.39288,48.35666 -3.39946,48.35666 -1.8639,0 -0.70277,-100.85801 1.19648,-103.93106 0.57213,-0.92573 0.1417,-3.10345 -0.95642,-4.83938 -1.50905,-2.38543 -2.00477,-1.75855 -2.02993,2.56697 -0.0226,3.87859 -1.43421,6.08953 -4.37994,6.85986 -3.76317,0.98409 -4.34667,2.96445 -4.34667,14.75235 0,9.51042 -1.0633,14.79062 -3.52662,17.51255 -3.07705,3.40011 -3.3241,7.94846 -1.93781,35.67968 1.48527,29.71148 1.85676,31.71273 5.69995,30.70772 3.33622,-0.87244 4.11115,0.11562 4.11115,5.24145 0,6.61673 1.88573,7.90813 5.81301,3.98085 1.66534,-1.66534 2.7692,-0.0248 3.84624,5.71643 0.91238,4.8634 0.5899,8.97276 -0.81433,10.37699 -2.93891,2.93892 -3.06544,8.68979 -0.15148,6.88893 1.19533,-0.73876 2.17333,0.20581 2.17333,2.09885 0,7.51934 -14.65668,9.29719 -35.33538,4.2862 z m 13.60204,-31.37839 c 0,-1.19533 -1.03572,-2.17333 -2.3016,-2.17333 -1.26588,0 -1.69716,0.978 -0.9584,2.17333 0.73876,1.19534 1.77448,2.17334 2.3016,2.17334 0.52712,0 0.9584,-0.978 0.9584,-2.17334 z m 9.34459,-47.81333 c 0,-6.57433 0.40744,-9.26383 0.90539,-5.97667 0.49798,3.28717 0.49798,8.66617 0,11.95334 -0.49795,3.28716 -0.90539,0.59766 -0.90539,-5.97667 z m -26.16949,-297.3369 c -8.30403,-1.20558 -17.26468,-12.18128 -18.91172,-23.16457 -1.72258,-11.48697 -0.0604,-18.53853 4.36975,-18.53853 1.71243,0 3.11354,-1.89828 3.11354,-4.2184 0,-2.32013 1.13207,-4.91806 2.51567,-5.77318 1.71187,-1.058 2.1367,-0.10548 1.32954,2.98105 -1.99475,7.62797 7.19252,14.07997 22.80251,16.01366 11.99471,1.48584 13.97522,1.18877 17.16731,-2.57509 5.20165,-6.13337 7.95879,-5.26334 9.50911,3.00063 1.75506,9.35522 -3.31961,21.63539 -11.02769,26.68593 -6.01096,3.93853 -22.13087,6.85696 -30.86802,5.5885 z m -177.75687,-4.79674 c -15.37542,-4.69351 -28.50057,-26.24322 -23.14408,-37.99944 2.46473,-5.40949 2.57007,-5.42692 32.79068,-5.42692 35.5468,0 38.53666,1.31318 36.20393,15.90118 -3.31896,20.7557 -25.13105,33.85002 -45.85053,27.52518 z"
         id="path3091"
         inkscape:connector-curvature="0" />
      <path
         style="fill:#909090"
         d="m 254.71999,695.43453 c -4.18367,-1.64924 -11.27417,-4.60634 -15.75667,-6.57132 l -8.15,-3.5727 -0.21494,-135.26083 c -0.11823,-74.39346 -0.85171,-140.63983 -1.63,-147.21417 -1.38318,-11.6841 -1.56191,-11.94086 -7.93506,-11.39911 -17.78836,1.51203 -20.64184,1.2105 -24.88523,-2.62973 -7.39266,-6.69026 -5.57621,-11.40965 6.8066,-17.6845 6.19376,-3.13862 15.61094,-6.3336 20.92709,-7.09996 10.36421,-1.49406 16.90594,-7.75734 13.63316,-13.05283 -0.99953,-1.61729 -6.3393,-3.45023 -11.86616,-4.07318 -5.52683,-0.62296 -10.02993,-1.73896 -10.00687,-2.48 0.0231,-0.74105 1.30993,-6.23735 2.85972,-12.21402 l 2.81781,-10.86667 12.90006,-0.17775 c 7.09504,-0.0978 15.03486,-1.32027 17.64405,-2.71667 11.37038,-6.08524 12.25215,-0.60913 2.92463,18.16309 -3.54848,7.14156 -6.48248,14.76046 -6.52,16.93087 -0.0865,5.00953 -3.7112,12.07148 -9.4039,18.3219 -2.44524,2.68478 -3.78616,5.54113 -2.97986,6.34746 2.70067,2.70065 12.68595,-8.91856 19.92223,-23.18223 3.94173,-7.76967 9.47845,-16.2794 12.30381,-18.91051 5.94454,-5.53586 25.4837,-14.65977 27.36515,-12.7783 0.70093,0.70091 -0.36486,9.82913 -2.36839,20.28493 -3.2011,16.70562 -3.62953,37.58761 -3.53368,172.23054 0.06,84.271 0.97813,157.621 2.0403,163 1.63456,8.27769 1.306,10.4186 -2.13884,13.93716 -5.22704,5.3389 -24.27172,6.80116 -34.75501,2.66852 z M 423.67794,668.9139 c -6.88347,-1.66803 -15.53566,-4.59464 -19.22711,-6.50354 -5.50482,-2.84666 -6.41525,-4.32048 -5.06305,-8.19614 0.90678,-2.59896 2.05085,-70.98487 2.54241,-151.96871 0.99772,-164.37614 2.01362,-154.27862 -14.08728,-140.02064 -18.00674,15.9457 -24.86991,17.75602 -39.21285,10.34332 -10.32446,-5.33586 -37.40341,-33.90813 -37.40341,-39.46609 0,-6.97712 25.85226,6.93344 40.85593,21.98372 7.51428,7.53762 14.80772,12.95636 17.43887,12.95636 5.95663,0 19.11811,-13.72861 22.24519,-23.20378 1.36249,-4.12841 1.89111,-10.63066 1.17471,-14.44944 -1.03494,-5.51672 -0.17278,-8.16157 4.19597,-12.87315 5.47,-5.89917 8.1696,-6.94991 22.83321,-8.88723 9.59388,-1.26752 19.84319,0.56551 18.18291,3.25192 -0.68707,1.1117 2.60837,6.20627 7.3232,11.32126 10.55451,11.45027 12.45894,18.98721 16.82193,66.57375 3.7475,40.87343 6.87401,58.10937 11.53129,63.57 2.0876,2.4477 6.3424,3.80334 11.93714,3.80334 8.55565,0 8.63103,0.0689 4.75965,4.34666 -5.58004,6.16588 -11.39992,5.39878 -18.75198,-2.47162 -3.50307,-3.75004 -7.06911,-6.11839 -7.92454,-5.26297 -0.85542,0.85543 -1.89599,16.39315 -2.31236,34.52829 -0.75276,32.78602 -2.90977,44.04695 -5.40517,28.21824 -0.71839,-4.55689 -3.36019,-32.22084 -5.87065,-61.47543 -3.98667,-46.45685 -6.62888,-61.46739 -10.19243,-57.90382 -0.51575,0.51574 -1.38294,12.51988 -1.92707,26.67585 -0.54416,14.15598 -1.93881,42.71712 -3.09926,63.46922 -1.16043,20.75209 -2.10988,64.07717 -2.10988,96.27793 0,48.22887 0.58437,59.67686 3.31582,64.95891 3.71952,7.19277 11.54037,8.63206 17.03704,3.1354 2.24462,-2.24462 3.73985,-2.52724 4.74721,-0.8973 0.80878,1.30865 0.38214,3.46777 -0.9481,4.798 -3.0073,3.00731 -3.21133,8.81576 -0.2453,6.98264 1.19533,-0.73876 2.17333,0.20581 2.17333,2.09885 0,7.51934 -14.65667,9.29719 -35.33537,4.2862 z m -10.30463,-92.23172 c 0,-1.19533 -0.978,-2.17333 -2.17333,-2.17333 -1.19533,0 -2.17333,0.978 -2.17333,2.17333 0,1.19533 0.978,2.17333 2.17333,2.17333 1.19533,0 2.17333,-0.978 2.17333,-2.17333 z m 0,-19.81652 c 0,-2.39067 -0.978,-3.74224 -2.17333,-3.00348 -1.19533,0.73876 -2.17333,3.29919 -2.17333,5.68985 0,2.39067 0.978,3.74224 2.17333,3.00348 1.19533,-0.73876 2.17333,-3.29918 2.17333,-5.68985 z m 0.48444,-24.19348 c 1.11827,-14.11519 -0.90639,-18.84915 -3.02091,-7.06333 -2.18961,12.20428 -2.13754,18.47333 0.15344,18.47333 1.07995,0 2.37034,-5.1345 2.86751,-11.41 z m 7.99852,-240.20127 c -6.81699,-1.81787 -12.97491,-5.82676 -15.96868,-10.39584 -4.06448,-6.20315 -6.37236,-24.99516 -3.58154,-29.1626 1.83005,-2.73278 2.88412,-2.50869 7.17913,1.52627 11.52199,10.82436 33.43154,14.72433 45.97323,8.18338 7.88516,-4.11239 7.90157,-4.10996 7.90157,1.16987 0,7.66444 -5.93446,19.00632 -12.03688,23.00479 -5.8269,3.81792 -23.59633,7.23961 -29.46683,5.67413 z m -179.15806,-4.88237 c -15.37542,-4.69351 -28.50057,-26.24322 -23.14408,-37.99944 2.46473,-5.40949 2.57007,-5.42692 32.79068,-5.42692 35.5468,0 38.53666,1.31318 36.20393,15.90118 -3.31896,20.7557 -25.13105,33.85002 -45.85053,27.52518 z"
         id="path3089"
         inkscape:connector-curvature="0" />
      <path
         style="fill:#878787"
         d="m 255.43008,691.11272 c -3.37888,-2.80651 -8.86753,-5.76783 -12.19697,-6.5807 -3.79989,-0.92771 -6.87718,-3.64427 -8.26596,-7.29705 -1.89035,-4.972 -1.48367,-6.36956 2.79353,-9.60016 l 5.00597,-3.78101 0,-84.33581 0,-84.33581 -5.11522,-6.81516 c -6.21039,-8.27425 -4.85023,-16.65199 2.53082,-15.58821 9.68668,1.3961 10.12506,5.92924 10.15903,105.04978 0.0377,110.14151 -1.44052,103.17359 21.8886,103.17359 14.68667,0 15.0901,0.1467 15.0901,5.48712 0,10.38856 -21.24144,13.46815 -31.8899,4.62342 z m 171.12424,-26.24065 c -1.41051,-1.69955 -6.36395,-3.73201 -11.00767,-4.51656 -9.21478,-1.55682 -12.30331,-4.19592 -12.71724,-10.86666 -0.14844,-2.39067 -0.21757,-69.62817 -0.15387,-149.41667 0.12931,-161.85153 1.18588,-152.03236 -14.83268,-137.84731 -18.00674,15.9457 -24.8699,17.75602 -39.21284,10.34332 -10.32442,-5.33586 -37.40337,-33.90813 -37.40337,-39.46609 0,-6.97712 25.85226,6.93344 40.85593,21.98372 7.51428,7.53762 14.80772,12.95636 17.43887,12.95636 5.95663,0 19.11811,-13.72861 22.24519,-23.20378 1.36249,-4.12841 1.89111,-10.63066 1.17471,-14.44944 -1.03494,-5.51672 -0.17278,-8.16157 4.19597,-12.87315 5.47,-5.89917 8.1696,-6.94991 22.83321,-8.88723 9.59388,-1.26752 19.84319,0.56551 18.18291,3.25192 -0.68707,1.1117 2.60837,6.20627 7.3232,11.32126 10.55451,11.45027 12.45894,18.98721 16.82193,66.57375 3.7475,40.87343 6.87401,58.10937 11.53129,63.57 2.0876,2.4477 6.3424,3.80334 11.93714,3.80334 8.55565,0 8.63103,0.0689 4.75965,4.34666 -5.58004,6.16588 -11.39992,5.39878 -18.75198,-2.47162 -3.50307,-3.75004 -7.06911,-6.11839 -7.92454,-5.26297 -0.85542,0.85543 -1.89599,16.39315 -2.31236,34.52829 -0.75276,32.78602 -2.90977,44.04695 -5.40517,28.21824 -0.71839,-4.55689 -3.36019,-32.22084 -5.87065,-61.47543 -3.98667,-46.45685 -6.62888,-61.46739 -10.19243,-57.90382 -0.51575,0.51574 -1.38294,12.51988 -1.92707,26.67585 -0.54416,14.15598 -1.93881,42.71712 -3.09926,63.46922 -1.16043,20.75209 -2.10988,64.07717 -2.10988,96.27793 0,48.22887 0.58437,59.67686 3.31582,64.95891 3.71952,7.19277 11.54037,8.63206 17.03704,3.1354 4.02912,-4.02912 6.70575,-0.62277 3.7861,4.81826 -1.14859,2.14047 -2.61802,5.60324 -3.26544,7.69508 -0.93105,3.00837 -3.63418,3.80333 -12.93253,3.80333 -7.51067,0 -12.68146,-1.11581 -14.31998,-3.09011 z m -13.18101,-88.18989 c 0,-1.19533 -0.978,-2.17333 -2.17333,-2.17333 -1.19533,0 -2.17333,0.978 -2.17333,2.17333 0,1.19533 0.978,2.17333 2.17333,2.17333 1.19533,0 2.17333,-0.978 2.17333,-2.17333 z m 0,-19.81652 c 0,-2.39067 -0.978,-3.74224 -2.17333,-3.00348 -1.19533,0.73876 -2.17333,3.29919 -2.17333,5.68985 0,2.39067 0.978,3.74224 2.17333,3.00348 1.19533,-0.73876 2.17333,-3.29918 2.17333,-5.68985 z m 0.48444,-24.19348 c 1.11827,-14.11519 -0.90639,-18.84915 -3.02091,-7.06333 -2.18961,12.20428 -2.13754,18.47333 0.15344,18.47333 1.07995,0 2.37034,-5.1345 2.86751,-11.41 z m -183.07896,-132.03 c -1.163,-4.18367 -2.12003,-8.94318 -2.12668,-10.5767 -0.009,-2.1468 -1.6687,-2.5621 -5.98879,-1.4983 -15.08226,3.71395 -18.12254,3.75541 -23.36742,0.31883 -2.98609,-1.95654 -5.41256,-4.75732 -5.39215,-6.22393 0.048,-3.45679 21.66353,-12.80089 33.91202,-14.65974 10.29045,-1.56169 11.10782,-1.03279 6.51461,4.21538 -1.65162,1.88713 -3.67352,5.63163 -4.49313,8.32113 -1.21758,3.9955 -0.65245,4.89 3.08953,4.89 10.32303,0 21.58835,-8.58604 32.51943,-24.78521 10.86376,-16.09938 24.46248,-29.23285 25.90203,-25.01582 1.30947,3.83605 -3.88395,21.77547 -12.07911,41.72435 -10.46929,25.48458 -17.75026,32.12937 -34.41901,31.41156 -11.66391,-0.50228 -12.00854,-0.70118 -14.07133,-8.12155 z m -8.6588,-59.76667 c 0,-1.793 0.978,-3.26 2.17333,-3.26 1.19533,0 2.17333,1.467 2.17333,3.26 0,1.793 -0.978,3.26 -2.17333,3.26 -1.19533,0 -2.17333,-1.467 -2.17333,-3.26 z m 192.81499,-52.76116 c -10.57648,-6.55324 -17.78995,-26.85197 -12.50953,-35.20188 1.72046,-2.72055 2.78393,-2.49063 7.05973,1.52627 11.52199,10.82436 33.43154,14.72433 45.97323,8.18338 7.88516,-4.11239 7.90157,-4.10996 7.90157,1.16987 0,8.32779 -6.26161,19.39695 -13.45254,23.78114 -9.07849,5.53501 -26.47822,5.80427 -34.97246,0.54122 z m -178.31312,-5.06639 c -8.58369,-4.52891 -17.43048,-19.17537 -15.15855,-25.09597 1.44564,-3.76724 59.31012,-4.2537 63.03391,-0.52992 3.00459,3.00459 0.13626,13.87509 -5.2614,19.93953 -9.39843,10.55949 -28.53741,13.11338 -42.61396,5.68636 z"
         id="path3087"
         inkscape:connector-curvature="0" />
      <path
         style="fill:#707070"
         d="m 255.43008,691.11272 c -3.37888,-2.80651 -8.86753,-5.76783 -12.19697,-6.5807 -3.79989,-0.92771 -6.87718,-3.64427 -8.26596,-7.29705 -1.89035,-4.972 -1.48367,-6.36956 2.79353,-9.60016 l 5.00597,-3.78101 0,-84.33581 0,-84.33581 -5.11522,-6.81516 c -6.21039,-8.27425 -4.85023,-16.65199 2.53082,-15.58821 9.68668,1.3961 10.12506,5.92924 10.15903,105.04978 0.0377,110.14151 -1.44052,103.17359 21.8886,103.17359 14.68667,0 15.0901,0.1467 15.0901,5.48712 0,10.38856 -21.24144,13.46815 -31.8899,4.62342 z m 171.20563,-26.14257 c -1.45526,-1.75349 -6.44534,-3.83009 -11.08906,-4.61464 -9.66156,-1.6323 -12.09869,-4.05709 -12.62698,-12.56304 -0.33111,-5.33105 0.11779,-5.77915 3.80961,-3.80333 2.30171,1.23185 5.18955,2.23971 6.41738,2.23971 4.87861,0 6.5446,-19.04223 7.03532,-80.41334 0.49187,-61.51615 0.32328,-64.53607 -4.162,-74.54863 -3.37943,-7.54397 -5.74858,-10.25372 -8.55066,-9.78 -3.63494,0.61455 -3.91184,-3.29851 -4.45216,-62.9147 -0.5457,-60.20816 -0.78892,-63.57 -4.59905,-63.57 -3.82126,0 -3.8653,-0.68085 -0.87862,-13.58333 2.27635,-9.83383 2.50575,-14.60948 0.83098,-17.30075 -4.62157,-7.42662 3.96068,-14.75592 17.27843,-14.75592 6.78521,0 8.64702,3.02617 3.15775,5.1326 -1.793,0.68804 -3.26,2.63002 -3.26,4.31552 0,3.20077 5.5142,5.88222 21.40811,10.41032 15.4491,4.40137 16.68646,8.16012 23.51158,71.42156 4.11629,38.15358 4.23767,44.6429 1.40241,74.98 -2.63052,28.14636 -4.33613,21.58211 -7.05884,-27.16667 -2.28706,-40.9489 -7.64333,-82.53027 -11.75471,-91.25342 -3.68836,-7.8256 -9.59038,-8.16804 -12.54798,-0.72805 -2.49318,6.27167 -3.12038,50.42988 -2.3869,168.04814 0.20494,32.87167 -0.17344,69.88914 -0.84115,82.26104 -2.21873,41.11596 1.92912,53.07836 18.40442,53.07836 7.2809,0 9.04926,0.72781 8.52088,3.50696 -0.92919,4.88747 -23.74182,6.2128 -27.56876,1.60161 z m 49.76427,-201.3013 c -2.54034,-1.6417 -1.94066,-2.11411 2.71667,-2.14006 3.28716,-0.0174 5.97666,0.94472 5.97666,2.14006 0,2.74798 -4.44114,2.74798 -8.69333,0 z M 230.77879,400.64218 c -1.163,-4.18367 -2.12003,-8.94318 -2.12668,-10.5767 -0.009,-2.1468 -1.6687,-2.5621 -5.98879,-1.4983 -15.08226,3.71395 -18.12254,3.75541 -23.36742,0.31883 -2.98609,-1.95654 -5.41256,-4.75732 -5.39215,-6.22393 0.048,-3.45679 21.66353,-12.80089 33.91202,-14.65974 10.29045,-1.56169 11.10782,-1.03279 6.51461,4.21538 -1.65162,1.88713 -3.67352,5.63163 -4.49313,8.32113 -1.21758,3.9955 -0.65245,4.89 3.08953,4.89 10.32303,0 21.58835,-8.58604 32.51943,-24.78521 10.86376,-16.09938 24.46248,-29.23285 25.90203,-25.01582 1.30947,3.83605 -3.88395,21.77547 -12.07911,41.72435 -10.46929,25.48458 -17.75026,32.12937 -34.41901,31.41156 -11.66391,-0.50228 -12.00854,-0.70118 -14.07133,-8.12155 z M 347.88265,372.3705 c -7.35558,-3.88666 -32.30933,-29.17962 -32.30933,-32.74855 0,-4.13369 10.47527,1.96978 22.5424,13.13445 16.92633,15.66046 22.82243,19.63245 29.14277,19.63245 2.83191,0 4.48391,0.96131 3.73483,2.17333 -2.16299,3.49981 -14.56531,2.32364 -23.11067,-2.19168 z M 222.11999,340.87551 c 0,-1.793 0.978,-3.26 2.17333,-3.26 1.19533,0 2.17333,1.467 2.17333,3.26 0,1.793 -0.978,3.26 -2.17333,3.26 -1.19533,0 -2.17333,-1.467 -2.17333,-3.26 z M 415.4869,288.27192 c -2.95547,-2.03698 -6.56583,-5.21548 -8.02301,-7.06334 -4.11594,-5.21941 -7.66932,-17.29431 -6.20915,-21.0995 1.11277,-2.89982 2.14697,-2.60455 6.6501,1.89857 2.93282,2.93282 9.14399,6.47439 13.8026,7.87014 10.74261,3.21856 31.33749,3.29011 34.50771,0.1199 1.32979,-1.32981 3.40685,-2.06331 4.61566,-1.63 4.03086,1.44491 -3.50007,14.67956 -10.93126,19.21024 -9.1252,5.5635 -26.82943,5.92054 -34.41265,0.694 z m -178.86504,-5.22396 c -8.58369,-4.52891 -17.43048,-19.17537 -15.15855,-25.09597 1.44564,-3.76724 59.31012,-4.2537 63.03391,-0.52992 3.00459,3.00459 0.13626,13.87509 -5.2614,19.93953 -9.39843,10.55949 -28.53741,13.11338 -42.61396,5.68636 z"
         id="path3085"
         inkscape:connector-curvature="0" />
      <path
         style="fill:#696969"
         d="m 255.43008,691.11272 c -3.37888,-2.80651 -8.86753,-5.76783 -12.19697,-6.5807 -3.79989,-0.92771 -6.87718,-3.64427 -8.26596,-7.29705 -1.89035,-4.972 -1.48367,-6.36956 2.79353,-9.60016 l 5.00597,-3.78101 0,-84.33581 0,-84.33581 -5.11522,-6.81516 c -6.21039,-8.27425 -4.85023,-16.65199 2.53082,-15.58821 9.68668,1.3961 10.12506,5.92924 10.15903,105.04978 0.0377,110.14151 -1.44052,103.17359 21.8886,103.17359 14.68667,0 15.0901,0.1467 15.0901,5.48712 0,10.38856 -21.24144,13.46815 -31.8899,4.62342 z m 171.20563,-26.14257 c -1.45526,-1.75349 -6.44534,-3.83009 -11.08906,-4.61464 -9.06895,-1.5322 -12.48639,-4.34912 -12.38155,-10.20595 0.0532,-2.97397 0.88266,-3.24887 4.29399,-1.42318 2.32538,1.24451 6.7274,1.78495 9.78224,1.20098 4.3007,-0.82213 7.18541,0.66776 12.78152,6.60135 6.53943,6.93382 8.0672,7.55046 16.05296,6.47936 6.16455,-0.82685 8.57469,-0.42224 7.99324,1.34183 -1.30333,3.95415 -24.23615,4.47264 -27.43334,0.62025 z M 415.83894,480.85872 c -6.65364,-10.70349 -9.12005,-23.70987 -4.49608,-23.70987 8.37728,0 15.02768,11.70135 15.05833,26.49506 0.0196,9.67585 -3.37208,8.78135 -10.56225,-2.78519 z M 230.77879,400.64218 c -1.163,-4.18367 -2.12003,-8.94318 -2.12668,-10.5767 -0.009,-2.1468 -1.6687,-2.5621 -5.98879,-1.4983 -15.08226,3.71395 -18.12254,3.75541 -23.36742,0.31883 -2.98609,-1.95654 -5.41256,-4.75732 -5.39215,-6.22393 0.048,-3.45679 21.66353,-12.80089 33.91202,-14.65974 10.29045,-1.56169 11.10782,-1.03279 6.51461,4.21538 -1.65162,1.88713 -3.67352,5.63163 -4.49313,8.32113 -1.21758,3.9955 -0.65245,4.89 3.08953,4.89 10.32303,0 21.58835,-8.58604 32.51943,-24.78521 10.86376,-16.09938 24.46248,-29.23285 25.90203,-25.01582 1.30947,3.83605 -3.88395,21.77547 -12.07911,41.72435 -10.46929,25.48458 -17.75026,32.12937 -34.41901,31.41156 -11.66391,-0.50228 -12.00854,-0.70118 -14.07133,-8.12155 z m 117.39453,-28.25333 c -1.793,-1.15874 -2.282,-2.10677 -1.08667,-2.10677 1.19533,0 3.64033,0.94803 5.43333,2.10677 1.793,1.15873 2.282,2.10676 1.08667,2.10676 -1.19533,0 -3.64033,-0.94803 -5.43333,-2.10676 z m -10.432,-6.95467 c -1.4344,-1.4344 -2.608,-3.3904 -2.608,-4.34667 0,-3.20218 3.27336,-1.78305 6.01563,2.608 2.97193,4.75882 0.74748,5.89378 -3.40763,1.73867 z M 222.11999,340.87551 c 0,-1.793 0.978,-3.26 2.17333,-3.26 1.19533,0 2.17333,1.467 2.17333,3.26 0,1.793 -0.978,3.26 -2.17333,3.26 -1.19533,0 -2.17333,-1.467 -2.17333,-3.26 z m 178.21332,-25.02992 c 0,-2.51689 7.30406,-6.48341 11.93873,-6.48341 1.94212,0 2.98621,0.8817 2.32021,1.95933 -1.79428,2.90319 -14.25894,6.85798 -14.25894,4.52408 z m 14.63867,-27.71031 c -5.68032,-3.52141 -15.67617,-19.75336 -13.50279,-21.92674 0.55593,-0.55595 2.88031,0.68106 5.16529,2.74892 9.74323,8.8175 37.33209,12.69867 48.5755,6.83355 6.77578,-3.53459 7.50174,-2.17334 2.58475,4.84667 -7.79153,11.12396 -30.5466,15.10802 -42.82275,7.4976 z m -178.35012,-5.08732 c -8.58369,-4.52891 -17.43048,-19.17537 -15.15855,-25.09597 1.44564,-3.76724 59.31012,-4.2537 63.03391,-0.52992 3.00459,3.00459 0.13626,13.87509 -5.2614,19.93953 -9.39843,10.55949 -28.53741,13.11338 -42.61396,5.68636 z"
         id="path3083"
         inkscape:connector-curvature="0" />
      <path
         style="fill:#616161"
         d="m 428.64798,662.42227 c -4.14994,-2.92972 -9.34872,-5.32676 -11.55288,-5.32676 -5.49368,0 -11.63967,-3.53775 -13.19719,-7.59658 -1.07932,-2.81268 -0.54166,-2.96834 3.24785,-0.94023 2.49772,1.33673 7.04073,1.95263 10.09557,1.36866 4.3007,-0.82213 7.18541,0.66776 12.78152,6.60135 6.51183,6.90457 8.08928,7.54751 15.93553,6.49511 8.62959,-1.15747 11.88781,1.07989 5.27051,3.61917 -6.75537,2.59229 -15.15398,1.02244 -22.58091,-4.22072 z M 415.83894,480.85872 c -6.65364,-10.70349 -9.12005,-23.70987 -4.49608,-23.70987 8.37728,0 15.02768,11.70135 15.05833,26.49506 0.0196,9.67585 -3.37208,8.78135 -10.56225,-2.78519 z M 348.17332,372.38885 c -1.793,-1.15874 -2.282,-2.10677 -1.08667,-2.10677 1.19533,0 3.64033,0.94803 5.43333,2.10677 1.793,1.15873 2.282,2.10676 1.08667,2.10676 -1.19533,0 -3.64033,-0.94803 -5.43333,-2.10676 z m -10.432,-6.95467 c -1.4344,-1.4344 -2.608,-3.3904 -2.608,-4.34667 0,-3.20218 3.27336,-1.78305 6.01563,2.608 2.97193,4.75882 0.74748,5.89378 -3.40763,1.73867 z m 62.59199,-49.58859 c 0,-2.51689 7.30406,-6.48341 11.93873,-6.48341 1.94212,0 2.98621,0.8817 2.32021,1.95933 -1.79428,2.90319 -14.25894,6.85798 -14.25894,4.52408 z m 14.63867,-27.71031 c -5.68032,-3.52141 -15.67617,-19.75336 -13.50279,-21.92674 0.55593,-0.55595 2.88031,0.68106 5.16529,2.74892 9.74323,8.8175 37.33209,12.69867 48.5755,6.83355 6.77578,-3.53459 7.50174,-2.17334 2.58475,4.84667 -7.79153,11.12396 -30.5466,15.10802 -42.82275,7.4976 z"
         id="path3081"
         inkscape:connector-curvature="0" />
    </g>
  </g>
</svg>
