<?xml version="1.0" encoding="UTF-8" standalone="no"?>
<!-- Created with Inkscape (http://www.inkscape.org/) -->

<svg
   xmlns:dc="http://purl.org/dc/elements/1.1/"
   xmlns:cc="http://creativecommons.org/ns#"
   xmlns:rdf="http://www.w3.org/1999/02/22-rdf-syntax-ns#"
   xmlns:svg="http://www.w3.org/2000/svg"
   xmlns="http://www.w3.org/2000/svg"
   xmlns:sodipodi="http://sodipodi.sourceforge.net/DTD/sodipodi-0.dtd"
   xmlns:inkscape="http://www.inkscape.org/namespaces/inkscape"
   version="1.0"
   width="240"
   height="180"
   id="svg2325"
   sodipodi:version="0.32"
   inkscape:version="0.48.4 r9939"
   sodipodi:docname="crying.svg"
   inkscape:output_extension="org.inkscape.output.svg.inkscape">
  <metadata
     id="metadata22">
    <rdf:RDF>
      <cc:Work
         rdf:about="">
        <dc:format>image/svg+xml</dc:format>
        <dc:type
           rdf:resource="http://purl.org/dc/dcmitype/StillImage" />
        <cc:license
           rdf:resource="http://creativecommons.org/licenses/publicdomain/" />
      </cc:Work>
      <cc:License
         rdf:about="http://creativecommons.org/licenses/publicdomain/">
        <cc:permits
           rdf:resource="http://creativecommons.org/ns#Reproduction" />
        <cc:permits
           rdf:resource="http://creativecommons.org/ns#Distribution" />
        <cc:permits
           rdf:resource="http://creativecommons.org/ns#DerivativeWorks" />
      </cc:License>
    </rdf:RDF>
  </metadata>
  <sodipodi:namedview
     inkscape:window-height="720"
     inkscape:window-width="1366"
     inkscape:pageshadow="2"
     inkscape:pageopacity="0.0"
     guidetolerance="10.0"
     gridtolerance="10.0"
     objecttolerance="10.0"
     borderopacity="1.0"
     bordercolor="#666666"
     pagecolor="#ffffff"
     id="base"
     showgrid="false"
     inkscape:zoom="2.275"
     inkscape:cx="75.138341"
     inkscape:cy="70.175612"
     inkscape:window-x="-3"
     inkscape:window-y="-3"
     inkscape:current-layer="svg2325"
     inkscape:window-maximized="1" />
  <defs
     id="defs2327">
    <inkscape:perspective
       sodipodi:type="inkscape:persp3d"
       inkscape:vp_x="0 : 90 : 1"
       inkscape:vp_y="0 : 1000 : 0"
       inkscape:vp_z="240 : 90 : 1"
       inkscape:persp3d-origin="120 : 60 : 1"
       id="perspective24" />
  </defs>
  <g
     id="layer1"
     transform="matrix(0.48725006,0,0,0.48725006,0.72789741,22.034343)">
    <g
       transform="translate(241.42857,201.42857)"
       id="g2546">
      <path
         d="m 367.85713,604.50507 a 61.42857,13.571428 0 1 1 -122.85714,0 61.42857,13.571428 0 1 1 122.85714,0 z"
         transform="matrix(1.093023,0,0,0.842105,-467.33603,-549.73907)"
         style="fill:#000000;fill-opacity:0.39215686;stroke:none"
         id="path2183"
         inkscape:connector-curvature="0" />
      <path
         d="m -56.126576,-115.46432 c 0,47.58243 -40.23502,77.45007 -82.234634,77.45007 -41.9996,0 -75.31769,-20.55666 -75.31769,-68.13909 0,-47.58243 34.08665,-86.20004 76.08624,-86.20004 41.999614,0 81.466084,29.30663 81.466084,76.88906 z"
         style="fill:#ffffff;fill-opacity:1;stroke:#000000;stroke-width:2.49999952;stroke-linecap:round;stroke-linejoin:round;stroke-miterlimit:4;stroke-opacity:1"
         id="path2185"
         inkscape:connector-curvature="0" />
      <path
         d="m -109.55563,-150.95559 c 1.01456,15.42987 17.388354,30.73225 29.962424,31.23108 12.57408,0.49883 19.73433,-10.4083 20.15946,-23.71474 0.42514,-13.30643 -10.45713,-25.78952 -24.29077,-27.86403 -13.83362,-2.07451 -26.843424,4.95238 -25.831114,20.34769 z"
         style="fill:#ffffff;fill-opacity:1;stroke:#000000;stroke-width:2.50000119;stroke-linecap:round;stroke-linejoin:round;stroke-miterlimit:4;stroke-opacity:1"
         id="path2187"
         inkscape:connector-curvature="0" />
      <path
         d="m -114.54637,-154.35186 c -0.40639,17.00719 -18.46956,28.55159 -32.92136,29.07215 -14.45182,0.52054 -25.91873,-8.08105 -23.88836,-22.73857 1.95114,-14.08561 15.06017,-24.89345 30.76819,-28.90781 14.96618,-3.82482 26.447,5.60512 26.04153,22.57423 z"
         style="fill:#ffffff;fill-opacity:1;stroke:#000000;stroke-width:2.50000048;stroke-linecap:round;stroke-linejoin:round;stroke-miterlimit:4;stroke-opacity:1"
         id="path2189"
         inkscape:connector-curvature="0" />
      <path
         d="m -108.46721,-158.3146 c 7.76581,-4.35221 24.432164,-5.71384 37.297334,-0.49808"
         style="fill:none;stroke:#000000;stroke-width:2.50000095;stroke-linecap:round;stroke-linejoin:round;stroke-miterlimit:4;stroke-opacity:1;stroke-dasharray:none"
         id="path2193"
         inkscape:connector-curvature="0" />
      <path
         d="m -108.57539,-156.18982 c 7.32503,7.07031 23.330944,13.64999 41.360044,16.80257"
         style="fill:none;stroke:#000000;stroke-width:2.50000095;stroke-linecap:round;stroke-linejoin:round;stroke-miterlimit:4;stroke-opacity:1;stroke-dasharray:none"
         id="path2195"
         inkscape:connector-curvature="0" />
      <path
         d="m -107.86965,-157.44148 c 4.79891,-1.33255 13.186484,0.90857 17.879754,4.63965"
         style="fill:none;stroke:#000000;stroke-width:2.50000238;stroke-linecap:round;stroke-linejoin:round;stroke-miterlimit:4;stroke-opacity:1;stroke-dasharray:none"
         id="path2197"
         inkscape:connector-curvature="0" />
      <path
         d="m -115.82706,-161.06951 c -8.45557,-4.30615 -26.78206,-5.55181 -41.07005,-0.23311"
         style="fill:none;stroke:#000000;stroke-width:2.50000072;stroke-linecap:round;stroke-linejoin:round;stroke-miterlimit:4;stroke-opacity:1;stroke-dasharray:none"
         id="path2199"
         inkscape:connector-curvature="0" />
      <path
         d="m -115.58189,-158.66541 c -7.0512,8.71461 -22.76855,16.34985 -40.62139,19.47307"
         style="fill:none;stroke:#000000;stroke-width:2.50000095;stroke-linecap:round;stroke-linejoin:round;stroke-miterlimit:4;stroke-opacity:1;stroke-dasharray:none"
         id="path2201"
         inkscape:connector-curvature="0" />
      <path
         d="m -115.15668,-159.15719 c -6.95891,0.30579 -13.51599,1.56123 -18.50328,4.24561"
         style="fill:none;stroke:#000000;stroke-width:2.50000191;stroke-linecap:round;stroke-linejoin:round;stroke-miterlimit:4;stroke-opacity:1;stroke-dasharray:none"
         id="path2203"
         inkscape:connector-curvature="0" />
      <path
         d="m -161.76079,-71.16609 c 0.66291,20.80608 13.79966,25.8232 35.06243,21.79133 29.822674,-5.65502 42.639504,-15.5935 41.976604,-36.39958 -0.6629,-20.80608 -14.09988,-35.24625 -35.362664,-31.21438 -21.26277,4.03187 -42.33928,25.01654 -41.67637,45.82263 z"
         style="fill:#000000;fill-opacity:1;stroke:none"
         id="path2205"
         inkscape:connector-curvature="0" />
      <path
         d="m -206.71415,-179.72134 c -4.26244,16.99531 20.83553,6.51017 30.92297,18.54113 -1.38493,-18.45489 -26.81134,-34.93505 -30.92297,-18.54113 z"
         style="fill:#ffffff;fill-opacity:1;fill-rule:evenodd;stroke:#000000;stroke-width:2.50000238;stroke-linecap:butt;stroke-linejoin:miter;stroke-miterlimit:4;stroke-opacity:1;stroke-dasharray:none"
         id="path2207"
         inkscape:connector-curvature="0" />
      <path
         d="m -23.230936,-179.67155 c 1.59641,17.44878 -21.58915,3.22643 -33.40779,13.56183 4.20832,-18.02196 31.86785,-30.39317 33.40779,-13.56183 z"
         style="fill:#ffffff;fill-opacity:1;fill-rule:evenodd;stroke:#000000;stroke-width:2.50000072;stroke-linecap:butt;stroke-linejoin:miter;stroke-miterlimit:4;stroke-opacity:1;stroke-dasharray:none"
         id="path2209"
         inkscape:connector-curvature="0" />
      <path
         d="m -6.8409065,-148.82962 c -10.0022395,8.54712 -11.9212895,-11.19017 -23.7203595,-13.57605 13.02645,-5.40992 33.3686695,5.33137 23.7203595,13.57605 z"
         style="fill:#ffffff;fill-opacity:1;fill-rule:evenodd;stroke:#000000;stroke-width:2.50000072;stroke-linecap:butt;stroke-linejoin:miter;stroke-miterlimit:4;stroke-opacity:1;stroke-dasharray:none"
         id="path2211"
         inkscape:connector-curvature="0" />
      <path
         d="m -236.01624,-141.7454 c 10.00224,8.54712 11.92129,-11.19017 23.72036,-13.57605 -13.02645,-5.40992 -33.36867,5.33137 -23.72036,13.57605 z"
         style="fill:#ffffff;fill-opacity:1;fill-rule:evenodd;stroke:#000000;stroke-width:2.50000072;stroke-linecap:butt;stroke-linejoin:miter;stroke-miterlimit:4;stroke-opacity:1;stroke-dasharray:none"
         id="path2213"
         inkscape:connector-curvature="0" />
    </g>
  </g>
  <text
     xml:space="preserve"
     style="font-size:23.3880024px;font-style:normal;font-variant:normal;font-weight:bold;font-stretch:normal;text-align:center;line-height:125%;letter-spacing:0px;word-spacing:0px;writing-mode:lr-tb;text-anchor:middle;fill:#000000;fill-opacity:1;stroke:none;font-family:Balker;-inkscape-font-specification:Balker Bold"
     x="144.88205"
     y="88.964302"
     id="text2999"
     sodipodi:linespacing="125%"><tspan
       sodipodi:role="line"
       id="tspan3003"
       x="147.46295"
       y="88.964302">Nessun </tspan><tspan
       sodipodi:role="line"
       id="tspan3005"
       x="144.88205"
       y="120.14723">paziente trovato!</tspan></text>
</svg>
