<?xml version="1.0" encoding="UTF-8" standalone="no"?>
<!-- Created with Inkscape (http://www.inkscape.org/) -->

<svg
   xmlns:dc="http://purl.org/dc/elements/1.1/"
   xmlns:cc="http://creativecommons.org/ns#"
   xmlns:rdf="http://www.w3.org/1999/02/22-rdf-syntax-ns#"
   xmlns:svg="http://www.w3.org/2000/svg"
   xmlns="http://www.w3.org/2000/svg"
   xmlns:sodipodi="http://sodipodi.sourceforge.net/DTD/sodipodi-0.dtd"
   xmlns:inkscape="http://www.inkscape.org/namespaces/inkscape"
   width="744.09448819"
   height="1052.3622047"
   id="svg3132"
   version="1.1"
   inkscape:version="0.48.4 r9939"
   sodipodi:docname="Nuovo documento 9">
  <defs
     id="defs3134" />
  <sodipodi:namedview
     id="base"
     pagecolor="#ffffff"
     bordercolor="#666666"
     borderopacity="1.0"
     inkscape:pageopacity="0.0"
     inkscape:pageshadow="2"
     inkscape:zoom="0.5"
     inkscape:cx="375"
     inkscape:cy="664.39388"
     inkscape:document-units="px"
     inkscape:current-layer="layer1"
     showgrid="false"
     inkscape:window-width="1293"
     inkscape:window-height="664"
     inkscape:window-x="0"
     inkscape:window-y="0"
     inkscape:window-maximized="0" />
  <metadata
     id="metadata3137">
    <rdf:RDF>
      <cc:Work
         rdf:about="">
        <dc:format>image/svg+xml</dc:format>
        <dc:type
           rdf:resource="http://purl.org/dc/dcmitype/StillImage" />
        <dc:title></dc:title>
      </cc:Work>
    </rdf:RDF>
  </metadata>
  <g
     inkscape:label="Livello 1"
     inkscape:groupmode="layer"
     id="layer1">
    <g
       id="g3202"
       transform="translate(-12,-32)">
      <path
         style="fill:#cfcfcf"
         d="m 287.5,645.71239 c -1.65,-0.18135 -13.8,-0.74451 -27,-1.25147 -24.72892,-0.94974 -30.81221,-1.9518 -32.90243,-5.41977 -0.92325,-1.53181 -0.46229,-2.36835 2.90243,-5.26722 l 4,-3.4462 -4,0.52906 c -2.2,0.29099 -9.41651,0.96579 -16.03668,1.49956 -6.62018,0.53378 -13.47575,1.25832 -15.2346,1.61009 -2.53296,0.50659 -3.3425,0.26281 -3.89323,-1.17237 -0.41001,-1.06848 -0.21118,-1.97333 0.4846,-2.20525 3.71939,-1.2398 -0.23163,-1.79311 -10.57009,-1.48025 -6.4625,0.19556 -12.37807,-0.072 -13.14572,-0.59449 -3.4512,-2.3492 1.60617,-5.93122 15.89572,-11.25856 l 7.5,-2.7961 -5,-0.005 c -2.75,-0.003 -15.575,1.2727 -28.5,2.8347 -13.6959,1.65517 -23.89634,2.47149 -24.45,1.95669 -0.5225,-0.48614 -6.17,-0.88363 -12.55,-0.88363 -11.64557,0 -14.41528,-0.75422 -13.3135,-3.62542 0.78322,-2.04103 8.0367,-3.83936 35.8135,-8.87911 13.75,-2.49476 25.41925,-4.66658 25.93166,-4.82626 0.51241,-0.15967 -0.72509,-1.55398 -2.75,-3.09845 -3.80531,-2.90245 -4.81938,-6.38749 -2.43166,-8.35686 0.6875,-0.56704 4.29994,-2.24997 8.02765,-3.73985 3.72771,-1.48988 7.16375,-3.44354 7.63565,-4.34146 1.72972,-3.2913 5.0612,-18.94979 6.51735,-30.63259 4.37693,-35.11655 8.23813,-105.33968 9.07247,-165 0.1948,-13.92965 1.53599,-40.71989 3.02879,-60.5 2.70282,-35.81347 3.72898,-76.05627 2.17133,-85.1532 l -0.79675,-4.65321 -6.70325,-0.62995 c -3.68678,-0.34647 -23.35324,-1.28625 -43.70324,-2.0884 -37.91671,-1.49459 -47.52975,-2.36018 -58,-5.22247 -8.744464,-2.39052 -9.668298,-3.78467 -7.409599,-11.18177 0.599721,-1.96405 1.550708,-5.146 2.113305,-7.071 1.850084,-6.33031 13.279844,-28.23736 22.434774,-43 13.76524,-22.19692 15.04658,-24.68549 13.76979,-26.74324 -0.59952,-0.96621 -2.96477,-2.8047 -5.25613,-4.08553 -7.70717,-4.30817 -7.50918,-8.13384 0.86278,-16.67123 2.69672,-2.75 8.64239,-9.5 13.21261,-15 6.3776,-7.67507 8.9586,-10.07492 11.10145,-10.322255 1.53558,-0.177241 3.37957,0.165413 4.09775,0.761454 1.02873,0.853768 1.8858,-0.563122 4.03931,-6.677743 5.75657,-16.345037 13.25991,-24.997186 24.13451,-27.829659 10.31587,-2.686943 22.10469,-0.978927 29.76462,4.312426 6.30363,4.354443 14.30727,14.889545 19.56698,25.75578 9.13505,18.872427 12.61893,36.272657 11.80095,58.939757 -0.59624,16.52221 -2.77952,26.10795 -8.68314,38.12346 -4.10151,8.34771 -11.12417,16.05902 -17.92793,19.68597 -3.73454,1.99081 -3.72806,2.61903 0.15485,15.00081 2.02556,6.45911 2.2527,6.75 5.27073,6.75 1.73467,0 4.57135,0.49411 6.30373,1.09802 2.70071,0.94148 3.37426,1.90383 4.72429,6.75 0.86598,3.10859 1.98395,7.00198 2.48439,8.65198 0.50044,1.65 1.85212,8.175 3.00374,14.5 1.82612,10.02955 2.24877,18.46866 3.30543,66 l 1.21158,54.5 5.20962,10.23183 c 7.13355,14.0105 7.07074,16.0474 -0.74181,24.05636 -3.27328,3.35557 -6.86726,7.89623 -7.98661,10.09035 -1.11936,2.19411 -3.05372,4.7079 -4.29858,5.58619 -2.12572,1.49975 -2.3776,1.45815 -4.14102,-0.68392 -1.73239,-2.10439 -1.8245,-3.51839 -1.19079,-18.28081 0.53544,-12.4732 1.05653,-16.55106 2.36403,-18.5 1.52346,-2.27084 1.65065,-7.0374 1.38754,-52 -0.15932,-27.225 -0.7262,-54.225 -1.25975,-60 -1.71024,-18.51135 -6.45493,-41.883 -8.67569,-42.73519 -2.14298,-0.82234 -2.24503,-0.0185 -0.79697,6.27814 10.39338,45.19353 11.30836,146.12788 1.52517,168.24442 -1.89356,4.28069 -1.92868,6.55233 -1.29639,83.84156 0.44804,54.76632 0.97147,79.12008 1.68519,78.40636 1.68341,-1.68341 5.02073,-1.21158 13.47268,1.90475 9.58956,3.53579 21.2686,6.05996 28.03866,6.05996 9.44969,0 10.62762,2.48367 3.86064,8.14016 -8.68982,7.26379 -14.58638,8.75189 -25.58888,6.4578 -7.5388,-1.57189 -26.38236,-9.55717 -29.35763,-12.4408 -1.5443,-1.49673 -1.61463,-2.90685 -0.72647,-14.56619 0.95941,-12.59446 -0.35533,-150.21592 -1.44547,-151.30606 -1.73561,-1.73561 -2.39091,3.15023 -3.00824,22.42905 -1.89256,59.10317 -6.69281,114.8186 -11.45442,132.94899 -1.03467,3.93962 -1.60545,7.57207 -1.2684,8.0721 0.33705,0.50003 4.655,2.5892 9.59544,4.64258 9.72194,4.04072 12.51738,5.97487 12.51738,8.66073 0,0.95061 0.9,1.96373 2,2.25139 1.1,0.28766 2,1.3108 2,2.27366 0,1.63074 1.33504,1.70442 19.49128,1.07568 10.72021,-0.37123 21.51133,-0.95184 23.98027,-1.29024 3.69413,-0.50634 4.60681,-0.30823 5.15443,1.11886 0.95168,2.48002 -0.50783,3.06175 -12.47405,4.97189 -13.03943,2.08145 -46.51163,12.88057 -41.4429,13.3707 1.76497,0.17067 10.59559,-0.39183 19.62361,-1.25 20.13299,-1.91376 57.96331,-2.10196 63.68311,-0.31682 6.99676,2.18368 6.18644,2.5969 -11.11649,5.66878 -5.83041,1.03511 -11.90541,2.55613 -13.5,3.38005 -1.59459,0.82392 -4.86772,2.02762 -7.2736,2.67489 -2.40589,0.64727 -5.55589,1.64078 -7,2.20781 l -2.62566,1.03096 2.26314,0.86965 c 1.24473,0.47831 9.56973,1.57638 18.5,2.44015 16.36554,1.58295 27.4477,3.18749 29.10971,4.21467 1.35024,0.83449 -10.48712,6.20642 -13.37285,6.06875 -1.375,-0.0656 -3.85,-0.26764 -5.5,-0.44898 z M 214.51247,382.26342 c 1.41573,-14.7164 2.13983,-64.88687 0.91888,-63.66592 -0.86232,0.86232 -3.26982,33.83065 -4.04238,55.35647 -0.61137,17.03444 -0.19747,25.55004 1.17513,24.17745 0.25672,-0.25672 1.13348,-7.39732 1.94837,-15.868 z M 201.51095,224.61218 c -0.38666,-0.9625 -1.44731,-4.79631 -2.35699,-8.51958 -1.61804,-6.62256 -1.74083,-6.79265 -5.65396,-7.83173 -20.87655,-5.54346 -39.04558,-34.84636 -43.46628,-70.10215 -0.56855,-4.53424 -1.04061,-10.28087 -1.04903,-12.7703 -0.0111,-3.29092 -0.27988,-4.11685 -0.98469,-3.02624 -0.53316,0.825 -0.97627,2.49685 -0.98469,3.71521 -0.008,1.21836 -1.34639,3.73122 -2.97327,5.58412 -1.62687,1.85291 -4.17737,5.80607 -5.66776,8.7848 -1.4904,2.97873 -3.49294,6.54087 -4.4501,7.91587 -5.19745,7.46642 -23.79994,38.7815 -27.94695,47.04538 -6.548671,13.04974 -10.160328,22.17152 -9.170469,23.16138 0.452488,0.45249 4.168579,1.48094 8.257969,2.28544 6.79775,1.33731 17.78734,2.02185 70.43527,4.38743 29.08589,1.30689 26.81103,1.36196 26.01095,-0.62963 z m 8.45502,-28.23264 c 14.30564,-7.29819 22.84714,-37.36849 19.01058,-66.9266 -0.95602,-7.36544 -1.83682,-9.74995 -2.7038,-7.31972 -1.4478,4.05831 -11.71716,5.47496 -16.87752,2.32824 -8.55913,-5.21923 -11.56752,-20.33815 -5.51683,-27.725289 2.28244,-2.786567 7.37252,-5.373988 10.57194,-5.373988 3.14748,0 3.14659,-0.07364 -0.064,-5.269872 -9.31882,-15.082061 -23.75827,-22.187576 -34.17618,-16.817757 -7.45807,3.844201 -12.65288,11.232388 -16.58499,23.587629 -12.72348,39.978887 4.66021,96.697277 32.36836,105.609407 3.45484,1.11123 9.45426,0.21295 13.97244,-2.09205 z m -25.2993,-16.68403 c -1.29391,-1.2939 -0.64439,-4.27489 1.13946,-5.22958 1.98237,-1.06093 15.4959,-3.6155 24.25242,-4.58463 7.11008,-0.78691 11.20114,0.63212 10.76079,3.73249 -0.2926,2.06013 -1.03106,2.31038 -8.81934,2.98875 -4.675,0.4072 -11.9199,1.4197 -16.09978,2.25 -8.46274,1.68106 -10.26056,1.81597 -11.23355,0.84297 z m -6.38083,-46.13239 c -11.59411,-6.18718 -13.38365,-24.90239 -2.98729,-31.24142 10.79665,-6.583104 24.07202,4.82039 22.36737,19.21349 -1.29992,10.97578 -10.57028,16.72927 -19.38008,12.02793 z m 10.18958,-12.08903 c 0.7947,-3.61824 -1.55926,-9.55123 -4.39076,-11.0666 -5.36217,-2.86974 -8.50352,4.78777 -4.85008,11.82281 2.56901,4.94689 8.08742,4.4953 9.24084,-0.75621 z m 30.96788,-6.33441 c 2.10147,-3.00028 1.95302,-6.61523 -0.43234,-10.5275 C 215.6347,99.074715 210,100.63779 210,107.11184 c 0,7.95947 5.94895,13.01672 9.4433,8.02784 z"
         id="path3216"
         inkscape:connector-curvature="0" />
      <path
         style="fill:#afafaf"
         d="m 234.25616,641.38738 c -1.78411,-0.42354 -3.93296,-1.342 -4.77522,-2.04102 -1.36715,-1.13463 -1.341,-1.48153 0.24383,-3.2344 0.97638,-1.0799 3.80023,-3.01943 6.27523,-4.31006 l 4.5,-2.3466 -3.5,-0.0348 c -4.25357,-0.0423 -33.44825,2.70202 -37.1548,3.49255 -4.52161,0.96436 -4.28738,-1.44075 0.33798,-3.47033 l 4.31682,-1.8942 -15.90353,0.15682 c -12.09345,0.11927 -16.00834,-0.14814 -16.34101,-1.11618 -0.49529,-1.44126 10.3404,-6.69628 20.99454,-10.18178 3.7125,-1.21454 6.75,-2.6341 6.75,-3.15458 0,-1.09068 -4.00091,-0.75106 -36.99987,3.14077 -14.93822,1.76178 -24.11355,2.4431 -25.18426,1.87007 -0.92641,-0.49581 -6.88897,-0.90146 -13.25013,-0.90146 -9.69743,0 -11.56574,-0.24631 -11.56574,-1.52475 0,-0.83861 1.2375,-2.00255 2.75,-2.58653 3.71186,-1.43316 22.17734,-5.13588 42.25,-8.47202 9.075,-1.5083 16.85567,-3.04726 17.29039,-3.41992 0.43471,-0.37265 -1.02779,-1.88076 -3.25,-3.35136 C 169.08154,596.04953 168,594.65366 168,592.79296 c 0,-2.14345 0.89931,-2.9227 5.75,-4.98241 10.76545,-4.57125 10.56873,-4.3805 12.87359,-12.48305 6.63229,-23.31527 12.27693,-103.61716 13.84523,-196.96532 0.22639,-13.475 1.10402,-33.05 1.95029,-43.5 0.84627,-10.45 2.04331,-26.91405 2.66009,-36.58677 1.30804,-20.51357 0.91837,-61.31767 -0.60007,-62.83491 -0.57324,-0.57278 -11.53519,-1.48183 -25,-2.0732 -57.7373,-2.53577 -66.41747,-3.05672 -73.97913,-4.44001 -10.96923,-2.00666 -16.618086,-3.80521 -17.790887,-5.66449 -2.627094,-4.1648 10.142123,-31.72045 28.221197,-60.90062 6.86832,-11.08567 11.97112,-20.35894 11.82562,-21.49057 -0.144,-1.12005 -2.41801,-3.40322 -5.19982,-5.22077 -8.57342,-5.60163 -8.44347,-7.32086 1.33971,-17.72427 3.65377,-3.88541 9.47531,-10.55124 12.93676,-14.81295 7.1871,-8.848705 9.23433,-10.321179 12.16742,-8.751437 1.1,0.588702 2,1.594535 2,2.235184 0,2.584408 1.86181,-1.03068 3.46869,-6.735184 1.88574,-6.694437 7.05123,-16.378741 11.26209,-21.114239 14.18287,-15.949936 37.27574,-13.405959 51.94054,5.721918 19.14659,24.973637 26.66242,64.954948 18.28819,97.286008 -4.03362,15.57292 -11.76309,27.4767 -21.57528,33.22702 -5.06838,2.97027 -5.49943,5.19527 -2.79899,14.44779 2.4205,8.29335 3.794,9.9315 8.32703,9.9315 6.37382,0 7.89895,2.08788 11.09465,15.18841 5.73975,23.52966 6.26035,29.59423 6.63658,77.31159 0.44703,56.6963 0.44871,56.71559 5.81762,66.97958 7.8387,14.98563 7.89447,17.3351 0.5723,24.10983 -2.24963,2.08143 -5.86136,6.58881 -8.02608,10.0164 -4.56393,7.22646 -5.53779,8.02877 -7.63394,6.28912 -2.41844,-2.00713 -1.62016,-32.3513 0.95432,-36.27571 2.07354,-3.16079 2.16461,-9.58978 1.08543,-76.61922 -0.6027,-37.4342 -1.46072,-47.85209 -5.49723,-66.74554 -2.34536,-10.9778 -3.73705,-13.92081 -6.14579,-12.99649 -1.34471,0.51601 -1.30722,1.59645 0.32657,9.41248 5.2048,24.89972 7.9109,57.62216 7.88278,95.3196 -0.0279,37.35296 -2.48949,62.0999 -7.08001,71.17566 -1.77936,3.51792 -1.81731,6.477 -0.9414,73.40101 0.50199,38.35442 0.64898,74.39235 0.32665,80.0843 -0.32234,5.69194 -0.27743,10.34898 0.0998,10.34898 0.37722,0 1.68252,-0.63052 2.90067,-1.40115 1.98431,-1.25532 3.41169,-1.00118 13.71482,2.44193 11.90219,3.97749 21.38592,5.93862 28.78138,5.95167 5.98594,0.0106 6.51149,2.15904 1.59046,6.50187 -8.04708,7.10159 -15.30581,8.75611 -26.71704,6.08976 -6.55524,-1.5317 -23.85993,-8.76446 -26.34197,-11.01002 -0.89073,-0.80587 -1.30155,-21.6434 -1.64528,-83.45033 -0.37725,-67.83435 -0.69727,-82.5278 -1.81284,-83.23468 -3.0225,-1.91522 -2.66528,-5.38003 -5.35484,51.93861 -2.30368,49.09475 -5.41203,82.76686 -9.20018,99.66347 -3.16417,14.11341 -3.74942,12.62686 6.69556,17.00688 10.85757,4.55303 14.30696,6.97444 13.51044,9.48406 -0.3531,1.11252 0.0512,2.01766 1.07713,2.41134 1.40438,0.53891 1.44493,0.86922 0.2798,2.27895 -1.26221,1.52721 0.51595,1.59674 24.13195,0.94359 15.12671,-0.41836 25.09012,-0.33903 24.5,0.19505 -0.54701,0.49509 -6.16957,1.85392 -12.49457,3.01964 -6.8376,1.26019 -18.33496,4.53865 -28.35872,8.08647 -23.62542,8.36201 -23.62512,8.69235 0.006,6.6139 27.40213,-2.41011 49.72192,-2.91008 57.85254,-1.2959 l 7,1.38971 -7.29507,1.7098 c -4.01229,0.94039 -8.95562,2.59981 -10.98519,3.68759 -2.0294,1.08779 -4.01724,1.97779 -4.41725,1.97779 -0.40001,0 -3.21918,0.93233 -6.26481,2.07185 -8.53459,3.1932 -7.04866,5.1943 5.52735,7.44365 5.31341,0.95036 6.61113,1.96506 4.99839,3.90828 -1.09886,1.32405 -3.88825,1.55984 -17.43569,1.47386 -8.87016,-0.0563 -17.58729,-0.4489 -19.3714,-0.87244 z M 214.91451,385.80026 c 1.64691,-16.36369 2.43855,-47.5263 1.61943,-63.7478 -0.41131,-8.14535 -0.93986,-14.61769 -1.17456,-14.38299 -0.95534,0.95534 -4.43033,55.46975 -4.63375,72.69271 -0.21055,17.82558 0.70626,24.95579 2.39628,18.63654 0.40941,-1.53083 1.21608,-7.47014 1.7926,-13.19846 z m -12.6609,-159.02503 c 0.32282,-0.32282 -0.12272,-2.91032 -0.99009,-5.75 -0.86737,-2.83968 -1.84863,-6.7196 -2.18058,-8.62206 -0.52456,-3.00635 -1.13662,-3.61335 -4.67713,-4.63842 -2.24047,-0.64868 -5.61084,-1.96066 -7.4897,-2.91552 -20.41771,-10.37652 -36.90191,-46.01106 -36.91292,-79.79606 -0.002,-5.39496 -0.38891,-9.57064 -0.86034,-9.27928 -0.47142,0.29136 -1.4374,3.26406 -2.14661,6.60601 -0.80387,3.78801 -2.40147,7.47076 -4.24231,9.77927 -1.62406,2.03666 -3.86387,5.50301 -4.97735,7.70301 -1.11348,2.2 -8.33145,14.26695 -16.03993,26.81544 C 109.91647,185.91946 95,214.72364 95,218.30693 c 0,2.65671 18.02117,4.98487 47.5,6.13655 22.37998,0.87435 47.24648,2.08209 57.08333,2.77248 1.14584,0.0804 2.34746,-0.11791 2.67028,-0.44073 z m 8.80061,-30.23534 c 13.93599,-8.84692 21.80813,-34.98627 18.99896,-63.08586 -1.47742,-14.77839 -1.48668,-14.79642 -5.69774,-11.09907 -5.67465,4.98242 -14.21981,3.78941 -18.94754,-2.64531 -5.56889,-7.57959 -5.54598,-17.04378 0.056,-23.156653 2.74027,-2.990147 4.1856,-3.707134 8.37076,-4.1525 l 5.05865,-0.538314 -3.46766,-5.486977 C 193.0589,50.983678 163.23406,65.010244 159.1061,112.86218 c -0.87388,10.13021 -0.14363,23.47425 1.83327,33.5 3.88102,19.68227 14.74423,40.12486 25.38201,47.76434 6.04612,4.342 8.1987,5.0977 14.73284,5.17227 4.44501,0.0507 6.44207,-0.50024 10,-2.7589 z M 185.72457,179.75342 C 185.32606,179.3549 185,178.22128 185,177.23425 c 0,-2.34307 6.73456,-4.36182 19.8565,-5.95217 10.5071,-1.27344 15.1435,-0.79461 15.1435,1.56397 0,2.2511 -3.36259,3.51613 -9.34629,3.51613 -4.83673,0 -16.43686,1.84264 -22.17914,3.52308 -1.11398,0.326 -2.35148,0.26667 -2.75,-0.13184 z m -7.12988,-46.91867 c -3.50044,-1.82547 -5.09071,-3.69616 -7.62758,-8.97257 -5.06696,-10.5387 0.66882,-22.5 10.78938,-22.5 10.97514,0 18.58579,14.06504 13.80369,25.51023 -2.68056,6.41547 -10.69537,9.23219 -16.96549,5.96234 z m 9.40082,-7.96716 c 1.87265,-2.25641 1.41756,-9.47333 -0.78422,-12.43632 -2.37387,-3.19455 -7.08105,-3.96769 -8.91198,-1.46374 -2.5873,3.53834 -0.648,13.2859 2.92965,14.72536 2.514,1.0115 5.5494,0.64128 6.76655,-0.8253 z m 31.57678,-8.58528 c 1.16174,-1.28372 1.88226,-3.56404 1.88226,-5.95711 0,-7.6259 -7.30407,-12.871343 -10.85786,-7.7976 -3.85687,5.50646 0.0914,15.08867 6.49832,15.7712 0.32726,0.0349 1.44203,-0.87256 2.47728,-2.01649 z"
         id="path3214"
         inkscape:connector-curvature="0" />
      <path
         style="fill:#909090"
         d="m 231.75,639.67285 c -4.54625,-1.18805 0.0784,-5.20564 9.5,-8.2529 4.72086,-1.52688 5.03367,-4.06075 0.5,-4.05022 -1.7875,0.004 -5.95,0.43176 -9.25,0.95023 -3.3,0.51846 -10.95,1.39729 -17,1.95295 -6.05,0.55566 -12.575,1.31256 -14.5,1.68201 -5.47429,1.05064 -2.43847,-1.08959 4.5,-3.17247 8.23383,-2.47174 4.86632,-2.857 -13.3799,-1.5307 C 177.89136,628.28602 173,628.03381 173,626.26587 c 0,-1.32616 6.52861,-4.36261 17.86105,-8.30718 11.48723,-3.99844 14.55602,-5.4382 12.13895,-5.69515 -3.76159,-0.39987 -13.35004,0.44067 -36.88803,3.23366 -14.48019,1.7182 -26.51025,2.69792 -28,2.2803 C 136.67539,617.37478 131,617.13262 125.5,617.23936 c -10.49624,0.20369 -13.74989,-0.59498 -11.16461,-2.74057 1.68259,-1.39642 18.05563,-4.86624 43.11009,-9.13599 9.87002,-1.68204 18.19455,-3.30731 18.49895,-3.61172 0.30441,-0.3044 -1.43316,-2.24749 -3.86126,-4.31798 -5.37326,-4.58188 -5.05164,-6.36178 1.65502,-9.15898 10.46102,-4.36306 11.09858,-4.87854 12.74034,-10.30083 6.85441,-22.63826 12.5985,-98.48986 14.05595,-185.61111 0.28774,-17.20023 1.58679,-44.09295 3.11566,-64.5 2.64364,-35.28689 3.7227,-81.89875 2.07515,-89.64016 -0.71233,-3.34708 -1.1149,-3.68952 -5,-4.25314 -2.32391,-0.33713 -21.75431,-1.29054 -43.17866,-2.11868 -21.42435,-0.82814 -43.36694,-2.16564 -48.76132,-2.97222 -12.068751,-1.80455 -20.747479,-4.25364 -21.436526,-6.04927 -1.404616,-3.66037 11.28746,-31.29642 23.636406,-51.46653 17.59531,-28.73922 18.17597,-29.83035 17.02201,-31.98653 -0.58657,-1.09602 -2.51565,-2.72669 -4.28684,-3.62371 -8.5948,-4.35281 -8.77233,-7.2188 -0.97036,-15.66498 3.1625,-3.42363 7.97616,-8.92478 10.69703,-12.22478 11.9036,-14.437252 14.56659,-16.075515 16.94315,-10.423362 1.29282,3.074722 1.29557,3.070492 4.42641,-6.805798 7.92985,-25.01488 23.72728,-36.484047 42.43395,-30.807681 17.33314,5.259578 33.25259,29.16895 39.30819,59.036841 2.22139,10.95654 2.93653,30.8558 1.45878,40.59159 -3.46255,22.81209 -11.56001,37.86768 -24.42008,45.40418 -5.55624,3.25617 -5.70559,4.57106 -1.81779,16.00423 l 2.72036,8 5.82068,1 c 3.27979,0.56347 6.17761,1.65479 6.63833,2.5 1.37377,2.52024 4.78378,15.9931 6.4541,25.5 2.90256,16.52041 3.58613,25.77327 3.6919,49.97377 0.0577,13.21442 0.39525,34.87108 0.75,48.12591 l 0.64499,24.09967 5.25,10.40309 c 6.86232,13.59796 6.85332,15.39409 -0.11178,22.30375 -2.94899,2.92551 -6.87912,7.85591 -8.73364,10.95646 -6.18705,10.34406 -8.12621,6.70319 -7.25781,-13.62687 0.49136,-11.50322 0.97547,-14.84716 2.5221,-17.42087 1.83962,-3.06129 1.89096,-5.1407 1.32097,-53.5 -0.32617,-27.6732 -1.03759,-55.03991 -1.58094,-60.81491 -1.10371,-11.73081 -4.13566,-29.03323 -6.45783,-36.85282 -1.30311,-4.38803 -1.89156,-5.14718 -3.98981,-5.14718 -2.95186,0 -2.92794,-0.49356 -0.53984,11.13992 5.15997,25.13647 7.48262,54.70205 7.41286,94.36008 -0.0642,36.51911 -1.73617,56.46878 -5.54567,66.17116 l -2.28861,5.82884 0.37063,81 c 0.20385,44.55 0.48319,81.12935 0.62077,81.28744 0.13758,0.15809 1.4202,-0.24567 2.85027,-0.89725 2.22014,-1.01157 3.88311,-0.72877 11.37923,1.93508 11.79774,4.1925 20.55407,6.13902 27.7791,6.17526 9.0885,0.0456 9.94473,1.2102 4.5,6.12073 -6.00868,5.41915 -9.69281,6.87874 -17.36255,6.87874 -7.39986,0 -16.24385,-2.48697 -26.98698,-7.58886 -10.63739,-5.05167 -10.66383,-5.09639 -9.40713,-15.91114 0.71645,-6.16553 0.76097,-31.74632 0.14136,-81.22417 -0.81301,-64.9206 -1.07074,-72.39044 -2.54862,-73.86833 -0.90429,-0.90428 -2.07158,-1.37999 -2.59398,-1.05712 -0.52241,0.32286 -1.25716,9.71361 -1.63279,20.86832 -2.12279,63.03935 -7.33337,122.38701 -12.17739,138.69858 -1.15072,3.87489 -1.28351,5.63891 -0.48609,6.45706 0.60344,0.61911 5.69999,3.16722 11.32567,5.66246 l 10.2285,4.53681 0.0293,3.85425 c 0.0253,3.3292 -0.38335,4.04477 -3,5.25267 -2.66712,1.2312 -0.12732,1.35124 21.24231,1.00397 13.3494,-0.21694 24.12404,-0.24684 23.94365,-0.0664 -0.18039,0.18039 -3.65007,1.02681 -7.71041,1.88092 -6.6497,1.39881 -38.77115,12.29522 -43.36223,14.70957 -4.23251,2.22578 0.8858,2.54631 18.85736,1.18093 10.45,-0.79393 22.52193,-1.31885 26.8265,-1.16649 l 7.82651,0.27702 -8.82651,10.21658 c -8.52052,9.86241 -8.96516,10.21372 -12.8265,10.134 -2.2,-0.0454 -4.7875,-0.28838 -5.75,-0.53991 z M 213.37932,400.81606 c 1.91639,-4.99401 3.65008,-34.56251 3.63255,-61.95388 -0.0189,-29.45865 -0.93771,-41.65857 -2.37248,-31.5 -2.78294,19.70415 -5.51507,82.069 -3.99754,91.25 0.65045,3.93524 1.73732,4.81025 2.73747,2.20388 z M 202.70711,225.11218 c -3.97344,-16.99523 -3.84325,-16.71062 -8.17012,-17.86009 -19.22788,-5.10808 -36.1462,-29.80193 -42.06738,-61.40123 -0.86321,-4.60667 -1.89743,-14.36367 -2.29826,-21.68222 l -0.72879,-13.30646 -2.13958,8.75295 c -1.44273,5.90213 -3.09995,9.97336 -5.08821,12.5 -1.62174,2.06088 -3.86211,5.54705 -4.97859,7.74705 -1.11648,2.2 -7.73749,13.225 -14.71335,24.5 -16.86601,27.26032 -29.280821,52.64201 -26.908749,55.01408 2.908991,2.90899 22.844609,4.75051 74.385919,6.87128 34.57359,1.4226 33.31537,1.46628 32.70711,-1.13536 z M 208.5,198.49125 c 13.46564,-6.15046 22.5,-27.7029 22.5,-53.67619 0,-13.24128 -1.73753,-25.45288 -3.62156,-25.45288 -0.75814,0 -1.37844,0.45662 -1.37844,1.0147 0,1.70384 -6.31027,4.9776 -9.60212,4.98157 -10.66614,0.0129 -18.41536,-16.75978 -12.3085,-26.640883 2.66822,-4.317282 5.1735,-5.623826 10.57566,-5.515393 2.38423,0.04786 4.33496,-0.357593 4.33496,-0.901 0,-2.147766 -8.29931,-13.960163 -12.58172,-17.907557 -17.07719,-15.741198 -35.9004,-8.112102 -44.0413,17.85005 -10.62565,33.886233 -0.6198,80.430403 21.58169,100.391443 8.16781,7.34357 16.7836,9.3995 24.54133,5.85614 z m -22.99159,-20.11546 c -0.40378,-0.65333 -0.27364,-1.64838 0.28919,-2.21121 1.76584,-1.76584 12.29531,-3.81803 22.9524,-4.4734 10.01809,-0.61608 10.25,-0.58168 10.25,1.52033 0,1.89851 -0.55692,2.15112 -4.75,2.15448 -4.27266,0.003 -16.62635,1.75427 -24.87872,3.52597 -2.00189,0.42979 -3.39313,0.24389 -3.86287,-0.51617 z M 181,133.64065 c -10.9389,-4.11038 -14.92487,-19.27214 -7.41342,-28.19899 8.57589,-10.191874 25.17603,1.68095 22.965,16.42513 -1.25865,8.39325 -8.98372,14.24179 -15.55158,11.77386 z m 6.42707,-7.84839 c 5.61377,-5.61377 0.34334,-18.84419 -6.7932,-17.05303 -5.63897,1.41529 -5.62277,12.12672 0.025,16.56931 3.13126,2.46304 4.67826,2.5736 6.76815,0.48372 z m 33.01623,-9.65258 c 4.84494,-6.91713 -2.51726,-19.579957 -8.9379,-15.37299 -4.14362,2.715 -3.81407,10.50912 0.64503,15.25562 2.76994,2.94847 6.27514,2.99808 8.29287,0.11737 z"
         id="path3212"
         inkscape:connector-curvature="0" />
      <path
         style="fill:#6f6f6f"
         d="m 216.25,628.21036 c 2.6125,-0.58549 4.75,-1.45728 4.75,-1.93731 0,-1.87172 -5.34725,-1.99804 -20.54187,-0.48524 -32.90426,3.27599 -34.83872,1.57036 -8.45813,-7.45762 6.875,-2.35277 13.175,-4.93851 14,-5.74609 1.32013,-1.29226 0.18098,-1.39186 -9.5,-0.8306 -6.05,0.35075 -21.125,1.92803 -33.5,3.50507 -14.08903,1.79547 -23.12961,2.53769 -24.18426,1.98548 -0.92634,-0.48503 -6.88884,-0.88187 -13.25,-0.88187 -11.87896,0 -14.61589,-1.0402 -7.81574,-2.97044 4.0093,-1.13805 44.14115,-8.51837 53.16729,-9.77756 2.97951,-0.41566 5.58941,-1.27211 5.79979,-1.90323 0.21037,-0.63112 -1.42571,-2.43028 -3.63573,-3.99813 -2.21003,-1.56785 -4.23831,-3.40012 -4.5073,-4.0717 -0.72565,-1.81173 1.79689,-3.8798 7.1577,-5.86816 6.44236,-2.3895 9.92803,-4.92018 10.52794,-7.64351 0.2747,-1.247 1.21922,-4.91314 2.09894,-8.14698 5.92901,-21.79494 11.69753,-107.77633 13.05714,-194.62029 0.21096,-13.475 1.40413,-36.425 2.65149,-51 2.68488,-31.37203 3.42312,-88.49313 1.17871,-91.20143 -1.52874,-1.8447 -9.22941,-2.42028 -51.24597,-3.83035 -16.775,-0.56297 -34.55,-1.47249 -39.5,-2.02116 -11.77075,-1.30471 -26.560168,-4.94028 -27.233354,-6.69457 -0.624186,-1.62661 6.020643,-17.77441 12.860414,-31.25249 2.65155,-5.225 10.2259,-18.275 16.83189,-29 6.60599,-10.725 12.01767,-20.20906 12.02597,-21.07568 0.0177,-1.84543 -2.97909,-4.69997 -8.23492,-7.84411 -5.70945,-3.41551 -4.98929,-5.8345 4.78727,-16.08021 2.88648,-3.025 8.02685,-8.85393 11.42303,-12.95318 7.04328,-8.501387 9.22332,-10.297324 11.45845,-9.439622 1.14789,0.440486 1.58125,1.967575 1.58125,5.572032 0,6.94452 -4.68402,26.81089 -7.03103,29.82077 -1.07219,1.375 -3.14045,4.525 -4.59616,7 -3.95252,6.72013 -16.77388,27.96148 -24.74774,41 -6.19074,10.12283 -17.170025,32.41994 -19.080449,38.74922 -0.549601,1.82085 -0.171805,2.44203 1.983625,3.26152 7.069724,2.6879 22.322774,4.12163 58.471754,5.49613 21.175,0.80513 40.69255,1.74526 43.37233,2.08917 l 4.87232,0.62528 -0.4735,-3.36066 c -0.26043,-1.84836 -0.9833,-5.38566 -1.60639,-7.86066 -0.6231,-2.475 -1.37364,-5.7375 -1.66788,-7.25 -0.39258,-2.01801 -1.12881,-2.75021 -2.76593,-2.75079 -3.35452,-0.001 -13.6755,-5.27803 -18.45389,-9.43499 -5.35467,-4.65829 -14.16435,-17.92398 -18.10739,-27.26624 -1.67185,-3.96111 -4.30646,-12.06111 -5.8547,-18 -2.64468,-10.14474 -2.81207,-12.0079 -2.76695,-30.79798 0.0455,-18.93547 0.19505,-20.4776 2.81028,-28.973111 3.82378,-12.421473 7.95383,-19.674613 14.82573,-26.036776 8.64138,-8.000396 16.98735,-10.113222 27.55369,-6.975358 17.77586,5.278862 34.35859,31.044091 39.89427,61.985245 1.90407,10.64264 2.13738,32.16818 0.4498,41.5 -3.70656,20.49618 -12.97527,36.16663 -24.69828,41.75694 -2.92939,1.39693 -3.38351,2.10198 -3.38351,5.25312 0,4.31768 4.4791,18.04087 6.25682,19.16982 0.68375,0.43422 3.14531,0.79639 5.47013,0.80481 3.27612,0.0119 4.55389,0.52143 5.68039,2.26531 1.82282,2.82182 4.91152,15.19973 7.04931,28.25 0.90097,5.5 1.86885,11.125 2.15084,12.5 0.282,1.375 0.86569,25.783 1.29709,54.23999 l 0.78437,51.73999 5.10974,10.00749 c 2.81036,5.50412 5.40243,11.56767 5.76016,13.47455 0.59904,3.19316 0.21727,3.92409 -4.83272,9.25252 -3.01573,3.182 -7.14399,8.40007 -9.17391,11.5957 -2.02991,3.19564 -4.22208,5.63364 -4.87149,5.41778 -0.82522,-0.27431 -1.26384,-5.14708 -1.45675,-16.18356 -0.25086,-14.35152 -0.0913,-16.10413 1.75,-19.22493 1.89322,-3.20877 2.0213,-5.05242 1.95408,-28.12669 -0.1493,-51.24301 -1.65426,-92.93483 -3.7611,-104.19284 -2.45701,-13.12925 -5.03202,-23.12036 -6.37881,-24.75 -1.13318,-1.37117 -4.40209,-1.68996 -5.12702,-0.5 -0.2513,0.4125 0.36832,4.575 1.37692,9.25 5.26441,24.40114 7.96891,57.25831 7.94219,96.49005 -0.0262,38.39301 -2.19229,60.49974 -6.95184,70.9476 -1.84787,4.05634 -1.87513,6.22877 -0.88621,70.62371 0.56116,36.54125 0.7362,72.36065 0.38896,79.59866 -0.6787,14.14694 -0.26888,15.52469 3.82079,12.84504 2.24302,-1.46969 2.87642,-1.40192 9.22253,0.98675 9.84448,3.70545 21.212,6.43112 29.87555,7.16345 4.15249,0.35102 7.54998,0.98394 7.54998,1.40649 0,1.80602 -9.62294,9.02956 -13.38975,10.05113 -8.42075,2.28373 -21.80317,-0.9094 -37.35582,-8.91333 l -5.24558,-2.69955 -0.43561,-82.44379 -0.43562,-82.4438 -2.31881,-1.75221 c -1.27534,-0.96372 -2.64708,-1.42574 -3.0483,-1.02672 -0.40121,0.39902 -1.18364,12.18722 -1.73872,26.19601 -2.47256,62.40134 -5.77798,102.69373 -10.25206,124.97051 -3.41223,16.98977 -3.92331,15.61891 7.72027,20.70794 5.5,2.40388 10.61594,4.985 11.36875,5.73583 2.29109,2.28507 -1.44525,6.27721 -7.60027,8.1206 -9.07439,2.71772 -7.37557,3.58787 5.39407,2.76288 12.80993,-0.82758 14.76484,-0.86911 23.83745,-0.50634 7.52236,0.30078 7.21628,0.48632 -13.61219,8.25142 -18.788,7.0044 -20.14872,7.64577 -19.61446,9.24537 0.28367,0.84935 3.89138,1.08887 12.81076,0.85055 l 12.41589,-0.33174 -3,3.00989 c -2.28618,2.29371 -4.1897,3.13557 -8,3.53811 l -5,0.52822 4.75,-1.06455 z m -37.88434,-20.87781 c 0.8783,-0.92783 -0.21997,-1.03772 -4.86566,-0.48681 -8.57914,1.01735 -10.71038,2.76615 -2.63434,2.16162 3.50111,-0.26207 6.87611,-1.01574 7.5,-1.67481 z m 35.78702,-208.04514 c 0.38724,-1.88387 1.28521,-9.05023 1.99547,-15.92523 1.55081,-15.01095 1.61742,-77.20845 0.0868,-81 -0.9971,-2.46987 -1.01658,-2.45781 -1.61627,1 -1.33882,7.71957 -4.65378,60.55577 -4.79963,76.5 -0.16017,17.5091 0.5251,23.8853 2.49639,23.2282 0.62326,-0.20775 1.45004,-1.91909 1.83729,-3.80297 z M 209.6207,198.30375 c 16.80688,-8.13607 25.78393,-40.86353 20.21339,-73.69157 -0.5833,-3.4375 -1.38116,-6.25 -1.77301,-6.25 -0.39185,0 -1.75707,1.11194 -3.03382,2.47098 -1.27675,1.35904 -3.83663,2.97107 -5.68863,3.58228 -2.85131,0.94102 -4.01628,0.79001 -7.60295,-0.98551 -5.03461,-2.49231 -7.28428,-5.35131 -8.86689,-11.26853 -1.6675,-6.23459 -0.41941,-11.4486 3.73492,-15.602928 3.2023,-3.202294 3.79779,-3.412169 8.42113,-2.967924 2.73634,0.262928 4.97516,0.126358 4.97516,-0.303487 0,-2.046543 -7.96553,-13.795166 -12.27464,-18.10428 -18.42396,-18.423958 -38.14699,-9.656952 -46.95119,20.870085 -1.97179,6.836814 -2.25334,10.113154 -2.26092,26.309314 -0.007,15.98064 0.30142,19.71907 2.26822,27.45177 9.35619,36.78496 30.22252,57.50199 48.83923,48.4898 z m -23.07857,-19.8734 c -1.21371,-1.96383 0.4447,-2.92882 7.87393,-4.58167 10.10951,-2.24915 24.08394,-2.53144 24.08394,-0.4865 0,1.17698 -1.96827,1.63859 -9.14014,2.14358 -8.6387,0.60826 -16.83951,1.95204 -20.51094,3.3609 -0.90564,0.34753 -1.94369,0.15119 -2.30679,-0.43631 z m -10.0545,-48.21317 c -10.76367,-9.45062 -7.51882,-27.86258 4.90839,-27.85126 8.54259,0.008 14.60991,7.15953 14.59739,17.20643 -0.0151,12.11157 -11.00468,18.10889 -19.50578,10.64483 z m 11.68363,-4.50998 c 2.90775,-2.63148 2.49381,-10.40117 -0.76015,-14.26829 C 182.57625,105.69301 176,108.399 176,116.13435 c 0,8.39272 7.20956,14.06312 12.17126,9.57285 z m 33.50073,-11.10241 c 3.94782,-9.44846 -8.30245,-20.933349 -12.50055,-11.71953 -1.71268,3.75893 -1.43122,7.53858 0.83862,11.26148 3.65649,5.99724 9.25562,6.21716 11.66193,0.45805 z"
         id="path3210"
         inkscape:connector-curvature="0" />
      <path
         style="fill:#4f4f4f"
         d="m 176.5,625.56298 c 1.82224,-1.92355 25.5,-9.95478 25.5,-8.64932 0,0.19888 -1.6875,2.18159 -3.75,4.40601 l -3.75,4.04439 -9.5,0.62726 c -6.65167,0.43918 -9.20018,0.31076 -8.5,-0.42834 z m -37.77798,-8.81211 c -0.33622,-0.33622 -5.58622,-0.54329 -11.66667,-0.46015 -11.4256,0.15623 -14.33501,-0.9786 -7.30535,-2.84948 6.09303,-1.62162 38.07104,-7.26219 55,-9.70141 4.43892,-0.63958 4.0794,-2.44298 -1.25,-6.27027 -2.475,-1.77741 -4.5,-3.88246 -4.5,-4.67789 0,-0.83826 3.51233,-3.06895 8.35493,-5.30624 l 8.35493,-3.85999 2.14314,-7.94256 c 6.71944,-24.90259 12.23204,-100.89465 13.62486,-187.8207 0.24675,-15.4 1.57497,-43.3 2.95159,-62 1.37662,-18.7 2.78468,-42.1 3.12903,-52 0.61402,-17.65303 -0.55472,-37.89624 -2.28801,-39.62953 -0.95322,-0.95322 -23.41531,-2.33231 -62.77047,-3.85387 -14.3,-0.55288 -29.84611,-1.63386 -34.54692,-2.40219 C 97.251202,226.2274 87,223.38926 87,222.17554 c 0,-0.5077 0.842281,-2.8109 1.871735,-5.11822 1.029454,-2.30733 3.729259,-8.47014 5.999566,-13.69514 4.846129,-11.15313 11.203709,-22.67954 24.268919,-44 5.22413,-8.525 9.77078,-16.23584 10.10366,-17.13519 0.8576,-2.31699 -1.7243,-5.55909 -6.27653,-7.88146 -4.80124,-2.44941 -6.20976,-4.76064 -4.62753,-7.59329 0.6381,-1.14238 4.38049,-5.63499 8.31643,-9.98356 3.93594,-4.34857 9.59144,-10.8315 12.56778,-14.4065 3.94215,-4.735067 6.07195,-6.499997 7.84375,-6.499997 2.30021,0 2.42383,0.298521 2.2777,5.499997 -0.085,3.025 -1.17364,10.14753 -2.41924,15.82785 -1.73449,7.90982 -3.01022,11.30466 -5.44885,14.5 -1.75127,2.29468 -4.10676,5.97215 -5.23441,8.17215 -1.12766,2.2 -6.88777,11.875 -12.80024,21.5 -15.17088,24.69689 -18.09569,29.95187 -24.117594,43.33192 -5.78734,12.85887 -6.295422,15.22535 -3.461953,16.12466 6.551237,2.07928 19.363227,3.60766 37.636807,4.48982 51.81675,2.50143 68.90236,3.05124 69.71034,2.24326 0.48404,-0.48404 -0.20123,-4.97148 -1.56047,-10.21865 l -2.4235,-9.35563 -4.93711,-1.60948 c -11.31965,-3.69017 -20.34507,-11.64947 -27.92894,-24.62986 -7.2541,-12.41595 -11.40045,-24.68232 -13.86069,-41.00487 -5.48148,-36.36715 4.74653,-68.976764 24.99902,-79.703549 6.29044,-3.331744 16.39906,-2.953446 23.42038,0.876466 22.01865,12.010491 37.06673,45.274413 37.07558,81.955913 0.007,29.63694 -8.77256,50.40493 -25.74461,60.8976 -2.39127,1.47836 -4.25,3.39615 -4.25,4.38504 0,2.90684 4.01876,16.55377 5.58553,18.96736 1.01265,1.55998 2.45021,2.25419 4.68752,2.26365 7.77298,0.0329 8.38133,0.81355 11.67855,14.98635 5.0171,21.56557 5.23992,24.36319 6.41653,80.56343 l 1.13187,54.06343 5.26255,10.43657 c 6.75698,13.40029 6.79554,15.47714 0.40328,21.71737 -2.65879,2.59556 -6.49895,7.33914 -8.5337,10.5413 -2.03474,3.20215 -4.24687,5.6333 -4.91583,5.40255 -1.75688,-0.60601 -1.12456,-32.58034 0.68635,-34.7063 0.71134,-0.83509 1.52813,-2.19335 1.81508,-3.01835 0.28696,-0.825 0.17793,-26.7 -0.24228,-57.5 -0.68963,-50.54741 -0.9728,-57.21709 -2.90831,-68.5 -2.26373,-13.19619 -4.49222,-23.01251 -6.07276,-26.75 -0.68802,-1.62694 -1.78819,-2.25 -3.97294,-2.25 -3.52009,0 -3.59076,0.41607 -1.56053,9.18795 10.36042,44.76349 11.2812,147.11898 1.50564,167.36971 -1.91259,3.96206 -1.94317,5.95863 -1.29803,84.75 0.36339,44.38078 0.89218,80.69234 1.17509,80.69234 0.28292,0 1.90012,-0.50109 3.59379,-1.11352 2.63174,-0.95165 4.33795,-0.66932 11.73673,1.94213 10.47834,3.69839 21.98888,6.17139 28.72469,6.17139 2.74073,0 5.21965,0.38267 5.50871,0.85038 0.28906,0.46772 -1.73806,2.69177 -4.50471,4.94234 -9.60801,7.81575 -20.4902,7.56579 -39.08545,-0.89781 -13.3622,-6.08179 -12.77782,-5.1107 -11.67149,-19.39491 0.57748,-7.456 0.55823,-38.26348 -0.0509,-81.35785 -0.8937,-63.23279 -1.13149,-69.52495 -2.69263,-71.25 -2.29396,-2.53479 -4.26292,-2.38872 -4.82366,0.35785 -0.25265,1.2375 -0.73042,11.925 -1.06172,23.75 -1.61913,57.79275 -7.33284,121.72362 -12.0818,135.18361 -0.80529,2.28242 -1.22393,4.90673 -0.93033,5.8318 0.3079,0.97009 4.73775,3.47701 10.46671,5.92326 12.39441,5.29238 13.52485,6.44617 9.49898,9.69521 -1.63382,1.31855 -4.77058,2.91268 -6.97058,3.54249 -2.2,0.62981 -4.8875,1.97278 -5.97222,2.98437 -1.92755,1.7976 -1.80378,1.83926 5.46428,1.83926 6.33186,0 7.219,0.20276 5.97223,1.36501 -0.95614,0.89131 -13.08968,2.80323 -34.96429,5.50942 -36.36088,4.49835 -35.38812,4.40412 -36.27798,3.51426 z m 37.31522,-7.39575 c 6.08877,-1.15471 6.77687,-1.57883 5.16949,-3.18621 -1.31031,-1.31031 -13.66596,0.2119 -21.36993,2.63276 l -4.3368,1.36277 7.61351,0.0989 c 4.18743,0.0544 10.00311,-0.35431 12.92373,-0.90819 z m 38.84337,-212.74649 c 2.51598,-16.01142 3.33139,-34.19344 2.88931,-64.42586 -0.27026,-18.4815 -0.8877,-32.3454 -1.50624,-33.82059 l -1.04824,-2.5 -0.59312,2.5 c -0.32622,1.375 -1.56266,15.55 -2.74765,31.5 -2.58421,34.78347 -3.07788,70.33417 -1.01136,72.83087 2.06618,2.4963 2.85721,1.29823 4.0173,-6.08442 z m -4.81112,-197.78239 c 15.57768,-8.05553 24.75141,-38.27285 20.976,-69.09275 -1.51886,-12.39887 -2.26802,-13.84248 -5.31913,-10.24966 -8.61137,10.14029 -22.8085,2.75313 -23.03081,-11.98358 -0.13884,-9.203529 5.91883,-14.862991 14.4488,-13.498994 4.6642,0.745836 4.58322,0.181169 -1.32787,-9.259586 -4.62345,-7.384228 -12.32416,-14.799616 -18.08456,-17.414514 -11.94626,-5.422923 -24.88789,0.526573 -32.083,14.749123 -13.59319,26.869611 -10.26068,70.782231 7.5066,98.914731 5.31644,8.41798 14.63229,16.92254 20.62997,18.83336 5.36354,1.70879 11.81398,1.31341 16.284,-0.99813 z M 186,177.57057 c 0,-3.17379 30.6777,-7.48414 31.73137,-4.45839 0.29122,0.83626 -0.66802,1.25234 -2.89804,1.25707 -2.99575,0.006 -15.10756,1.72735 -25.08333,3.56414 -2.39684,0.44132 -3.75,0.3104 -3.75,-0.36282 z m -6.78182,-45.8225 c -9.52495,-4.83678 -11.89792,-20.27036 -4.12257,-26.81289 9.29512,-7.82132 23.03666,4.24747 20.46207,17.97123 -1.49832,7.98673 -9.49823,12.31566 -16.3395,8.84166 z m 9.57525,-6.23686 c 2.20059,-2.80559 2.57632,-6.35254 1.11166,-10.49442 -2.93147,-8.28984 -10.59296,-10.03923 -13.49969,-3.08245 -3.85571,9.22802 6.71348,20.8115 12.38803,13.57687 z m 32.13399,-8.78389 c 4.76486,-6.05753 0.29088,-17.365137 -6.87072,-17.365137 -7.53889,0 -8.30706,13.040917 -1.10259,18.718197 2.53688,1.99912 5.76776,1.45084 7.97331,-1.35306 z"
         id="path3208"
         inkscape:connector-curvature="0" />
      <path
         style="fill:#2f2f2f"
         d="m 128,615.41271 c -11.33481,-0.54262 -11.43393,-0.56815 -6.90027,-1.77709 4.11362,-1.09693 28.08622,-5.27275 30.27271,-5.27324 0.47985,-1.1e-4 0.26759,0.72861 -0.47167,1.61937 -1.23051,1.48267 -0.14744,1.58671 12.81345,1.23077 7.78667,-0.21385 13.99154,-0.22277 13.78861,-0.0198 -0.77703,0.77702 -31.17638,5.15295 -34.50283,4.96662 -1.925,-0.10784 -8.675,-0.4438 -15,-0.7466 z m 56.01062,-7.5226 c -0.51694,-1.35964 -2.05084,-2.7509 -3.40868,-3.0917 -1.43822,-0.36097 -2.26535,-1.14979 -1.98144,-1.88966 0.26805,-0.69852 -1.78734,-3.17452 -4.56754,-5.50223 -2.78019,-2.32771 -4.78271,-4.67259 -4.45005,-5.21085 0.33266,-0.53826 3.8206,-2.44667 7.75097,-4.24091 3.93036,-1.79423 7.64504,-3.89907 8.25484,-4.67741 1.76891,-2.25784 5.16718,-16.46351 6.81501,-28.48857 C 197.00681,521.3436 202,432.53598 202,384.46754 c 0,-10.28218 1.14394,-32.84658 2.65345,-52.33979 2.66373,-34.39822 3.87685,-89.59847 2.10749,-95.89608 -0.42882,-1.52628 -1.68815,-2.87943 -3,-3.22351 -1.24352,-0.32615 -14.18594,-1.06609 -28.76094,-1.64431 -41.64314,-1.65208 -62.92333,-2.99572 -70.5,-4.45143 -10.847017,-2.08403 -17.5,-3.94025 -17.5,-4.8826 0,-0.47248 0.665098,-2.05349 1.477995,-3.51335 0.812897,-1.45986 3.535052,-7.37929 6.049233,-13.15429 5.983932,-13.74492 10.879862,-22.69604 24.339852,-44.5 6.11145,-9.9 11.10218,-18.675 11.09052,-19.5 -0.0317,-2.24475 -1.97683,-4.36933 -6.75537,-7.37876 -4.68257,-2.94898 -5.82094,-4.69999 -4.53591,-6.977 0.92193,-1.6336 16.22129,-19.27548 23.42958,-27.016924 5.97555,-6.41753 7.37683,-5.724251 6.59738,3.264014 -1.01995,11.76148 -4.53922,24.64133 -7.87578,28.82379 -1.66067,2.08169 -4.05195,5.80988 -5.31396,8.28488 -1.26201,2.475 -7.99965,13.725 -14.97253,25 -15.56157,25.16274 -28.629315,51.41389 -26.947943,54.13441 2.267735,3.66927 19.376693,5.67268 63.916933,7.48449 22,0.89492 41.35,1.68427 43,1.75412 2.79965,0.1185 2.99485,-0.10676 2.92293,-3.37302 -0.0679,-3.08456 -0.99671,-7.61547 -3.27101,-15.95711 -0.49963,-1.83254 -1.62187,-2.65489 -4.41499,-3.23522 -19.93285,-4.14143 -37.15884,-30.21955 -42.80893,-64.80767 -1.5075,-9.22848 -1.48947,-29.30841 0.0342,-38.02421 3.43657,-19.658805 12.12949,-35.144442 22.76679,-40.556973 2.07408,-1.055348 4.07988,-2.348961 4.45732,-2.874696 0.37744,-0.525736 3.75244,-0.920498 7.5,-0.87725 8.62376,0.09952 15.26155,3.234058 23.51059,11.102307 18.17148,17.332657 29.05369,53.156432 25.85791,85.123192 -1.10083,11.01137 -4.49703,24.08619 -8.09825,31.1769 -3.41469,6.72345 -9.94602,13.90771 -15.48629,17.03445 -4.92547,2.77976 -5.47022,3.42109 -5.47022,6.44012 0,5.23298 4.78945,19.27311 6.97324,20.44184 1.0424,0.55788 3.66976,1.01432 5.83857,1.01432 2.16882,0 4.39298,0.5625 4.94259,1.25 1.28344,1.60543 5.80894,20.6876 7.78931,32.84427 1.11939,6.87149 1.78365,23.25403 2.46538,60.80321 0.62026,34.16351 1.32653,52.60543 2.10635,55 0.64526,1.98139 3.13325,7.33431 5.52888,11.89538 2.39562,4.56108 4.35568,9.43967 4.35568,10.84131 0,1.719 -1.65205,4.22746 -5.07585,7.70714 -2.79171,2.83728 -6.67488,7.7368 -8.62925,10.88782 -1.95438,3.15103 -3.94525,5.48697 -4.42416,5.19099 -0.47891,-0.29599 -0.86906,-7.3741 -0.867,-15.72914 0.003,-13.72571 0.20875,-15.52728 2.12916,-18.67754 2.11935,-3.47659 2.12351,-3.63664 1.45822,-56 -0.69039,-54.33775 -1.26785,-64.36116 -4.71586,-81.8567 -3.24469,-16.46381 -4.47003,-19.83822 -7.47799,-20.59317 -2.94261,-0.73855 -5.76435,1.03744 -4.96363,3.12408 0.92181,2.40221 4.37524,20.53451 5.48751,28.81235 2.65887,19.78792 4.1473,45.69284 4.1944,73 0.0674,39.10457 -2.13012,61.98932 -6.98713,72.76155 -1.85015,4.10341 -1.87992,6.21387 -0.93428,66.23845 0.53721,34.1 0.77295,70.24951 0.52386,80.33225 -0.49006,19.83683 -0.22674,20.85765 4.56954,17.71501 2.30508,-1.51035 2.94203,-1.42928 10.83078,1.37859 11.08562,3.94573 18.81229,5.80058 27.68952,6.6471 l 7.30784,0.69687 -2.74737,2.86763 c -9.00195,9.39602 -21.88417,9.07863 -43.4775,-1.07117 l -8.36785,-3.93325 0.33556,-29.31652 c 0.18456,-16.12408 0.001,-53.13642 -0.40756,-82.24964 l -0.74311,-52.93312 -2.52745,-2.34237 c -1.3901,-1.2883 -3.01187,-2.18264 -3.60393,-1.98742 -0.65918,0.21735 -1.36164,6.13878 -1.81212,15.27549 -4.77116,96.76878 -6.58729,118.50289 -11.91891,142.63672 -2.50983,11.36082 -2.44596,11.52039 5.94385,14.84941 8.09304,3.21126 15.21071,6.8342 15.21071,7.74236 0,0.78724 -7.84453,4.87929 -13.75,7.1726 -1.7875,0.69416 -3.25,1.67899 -3.25,2.18853 0,0.50953 -1.19071,2.02994 -2.64602,3.37868 -3.6748,3.40568 -9.0449,3.39539 -10.34336,-0.0198 z m 30.4767,-205.77793 c 3.1539,-13.50589 4.94715,-54.10468 3.65714,-82.79694 -0.97756,-21.74272 -2.00484,-29.36523 -3.45001,-25.5992 -0.35347,0.92113 -1.80798,17.30584 -3.23224,36.41046 -2.55761,34.30713 -3.12071,69.9457 -1.15319,72.98568 1.2942,1.99966 3.60708,1.44611 4.1783,-1 z M 209.5,199.49117 c 4.61352,-2.10733 11.47489,-9.19208 14.31359,-14.77958 5.54357,-10.91159 9.56968,-32.79791 8.52623,-46.34941 -0.7578,-9.84169 -2.60324,-21.04477 -3.56448,-21.63884 -0.55873,-0.34532 -2.07179,0.72137 -3.36236,2.37041 -2.82916,3.615 -7.4875,5.71753 -10.8165,4.88201 -3.55773,-0.89294 -8.66087,-5.52345 -10.23245,-9.28477 -2.80552,-6.71455 -0.87632,-15.636585 4.08383,-18.8866 1.97625,-1.294888 3.82843,-1.569631 7.58352,-1.124896 3.844,0.455265 4.96862,0.275829 4.96862,-0.792755 0,-2.802501 -7.60866,-14.193007 -13.14167,-19.67366 -20.78311,-20.586471 -43.04253,-6.914093 -49.7905,30.582761 -1.5157,8.42238 -1.31978,27.6192 0.38049,37.28039 5.08789,28.91032 19.05681,52.13062 34.86762,57.95987 4.74476,1.74933 11.67192,1.51609 16.18406,-0.54493 z M 187,177.57616 c 0,-1.43076 2.07367,-2.05518 12.37235,-3.72552 10.65444,-1.72805 19.03329,-1.95382 18.12765,-0.48846 -0.33992,0.55 -2.72898,1.00171 -5.30902,1.00381 -4.95822,0.004 -20.48098,2.32923 -23.44098,3.51131 -0.96591,0.38573 -1.75,0.25081 -1.75,-0.30114 z m -10.05925,-47.91729 c -8.23541,-6.92963 -7.89185,-21.71935 0.59811,-25.74811 8.47132,-4.0199 17.52549,3.97463 17.61518,15.55363 0.0624,8.05683 -3.94055,12.81351 -10.82732,12.86599 -3.10633,0.0237 -4.99463,-0.65932 -7.38597,-2.67151 z m 11.98667,-3.93155 c 5.05005,-6.4201 0.4681,-18.24338 -7.10484,-18.33333 -3.34302,-0.0397 -6.82258,4.10928 -6.82258,8.13517 0,6.55257 4.72265,12.83302 9.64993,12.83302 1.2127,0 3.13757,-1.18568 4.27749,-2.63486 z m 32.51588,-8.58764 c 0.89238,-1.27407 1.5567,-4.30396 1.5567,-7.1 0,-4.21362 -0.46277,-5.34027 -3.4,-8.2775 -1.87,-1.869997 -4.14958,-3.399997 -5.06574,-3.399997 -7.41732,0 -9.80036,10.965007 -3.90558,17.970567 3.22354,3.83095 8.42468,4.21903 10.81462,0.80693 z"
         id="path3206"
         inkscape:connector-curvature="0" />
      <path
         style="fill:#060606"
         d="m 122.50892,614.34776 c 0.57937,-0.93745 17.47999,-3.33 18.22933,-2.58066 1.47905,1.47905 -1.80081,2.40477 -9.93474,2.80404 -4.78307,0.23479 -8.51564,0.13427 -8.29459,-0.22338 z m 55.73703,-13.86315 c -9.18097,-8.75471 -9.17899,-8.43483 -0.0748,-12.04308 3.11914,-1.2362 6.43795,-3.09493 7.37512,-4.13049 8.07604,-8.92392 15.2817,-91.26052 16.97337,-193.94886 0.27472,-16.67601 1.56272,-42.81325 3.10453,-63 2.79239,-36.56048 3.71746,-85.51034 1.72912,-91.49644 -1.32237,-3.98114 -1.90846,-4.05037 -50.3533,-5.94739 -38.39317,-1.50341 -53.62892,-2.96614 -62.790462,-6.0283 -2.359753,-0.78873 -4.947253,-1.18201 -5.75,-0.87397 -0.840228,0.32243 -1.453041,-0.0157 -1.444225,-0.79691 0.01824,-1.61686 1.927921,-4.80182 2.012826,-3.35699 0.03232,0.55 1.621333,-2.81702 3.531138,-7.48228 5.4813,-13.38965 13.303243,-28.12832 24.795393,-46.72127 5.84836,-9.46194 11.39604,-18.80285 12.32818,-20.75757 l 1.6948,-3.55403 -3.32011,-3.42548 c -1.82606,-1.88402 -4.63471,-3.97001 -6.24144,-4.63554 -4.51044,-1.86829 -3.36205,-4.62619 6.6839,-16.05158 15.47253,-17.597105 18.10851,-20.232237 19.4249,-19.41866 2.64027,1.631776 -3.3996,30.31287 -7.24817,34.41886 -1.35455,1.44516 -3.77542,5.10255 -5.37973,8.12755 -1.6043,3.025 -8.47499,14.5 -15.26821,25.5 -11.15573,18.06406 -22.15317,38.98672 -26.388794,50.20477 -2.147659,5.68807 -0.994284,6.67445 10.070234,8.6122 13.12368,2.29838 17.20108,2.60655 48.78977,3.68752 15.95,0.54581 34.2875,1.28561 40.75,1.64399 l 11.75,0.6516 0,-2.58494 c 0,-1.42172 -0.48408,-3.85174 -1.07574,-5.40004 -0.59165,-1.54831 -1.61449,-5.46596 -2.27296,-8.7059 l -1.19723,-5.89081 -6.50399,-2.10919 C 181.51948,200.94022 171.88822,191.2876 163.98587,174.9407 143.70942,132.99657 150.6367,75.48938 177.5,62.75242 c 2.75,-1.303885 4.55,-2.426845 4,-2.495467 -0.55,-0.06862 0.78194,-0.467531 2.95987,-0.886464 3.9515,-0.760085 12.05927,-0.194117 11.09095,0.77421 -0.281,0.280995 1.74001,1.553764 4.49113,2.828375 22.18794,10.279823 38.43732,48.792846 36.66018,86.889106 -1.19655,25.65026 -9.69935,44.74503 -23.51061,52.79782 -5.0321,2.93402 -5.71827,3.71728 -5.92244,6.76034 -0.28893,4.3066 4.74208,19.97562 6.74438,21.00529 0.8176,0.42045 3.73654,1.14067 6.48654,1.6005 l 5,0.83605 2.2523,8.5 c 5.67911,21.43251 6.29405,27.73936 7.26391,74.5 1.4841,71.55396 0.74093,63.31869 6.78915,75.23183 6.40277,12.61147 6.54715,14.95462 1.20335,19.52872 -2.19522,1.87902 -5.97743,6.44034 -8.40493,10.13627 -2.42749,3.69593 -4.70846,6.24283 -5.0688,5.65977 -0.36035,-0.58305 -0.34841,-7.69681 0.0265,-15.80835 0.55135,-11.92794 1.04801,-15.35597 2.59718,-17.92627 1.85954,-3.08523 1.88649,-4.85171 0.92306,-60.5 -1.04172,-60.17004 -1.45955,-65.63769 -6.67312,-87.32197 -2.38535,-9.92116 -2.79571,-10.5 -7.44381,-10.5 -4.79021,0 -4.85998,0.46727 -2.02255,13.54682 5.02802,23.17742 7.45803,53.35506 7.48493,92.95318 0.0268,39.52442 -2.18972,62.33872 -6.9512,71.54641 -1.35789,2.62586 -1.46143,12.31431 -0.89997,84.21042 0.34895,44.68374 0.99651,81.63009 1.43902,82.10298 0.44252,0.4729 2.15117,0.0644 3.79702,-0.90787 2.93865,-1.7359 3.1515,-1.71063 11.84019,1.40575 10.53206,3.77754 21.03299,6.10106 27.68107,6.12495 5.99617,0.0215 5.82681,1.31067 -0.75768,5.76736 -4.2259,2.86029 -5.59753,3.24933 -11.43866,3.24442 -3.65035,-0.003 -8.43699,-0.49095 -10.63699,-1.08418 -4.82537,-1.30117 -23.77659,-9.80596 -24.5489,-11.01687 -0.30189,-0.47335 -0.17487,-4.3555 0.28229,-8.627 0.85913,-8.02756 0.20789,-115.42027 -0.85826,-141.52935 l -0.60283,-14.76297 -3.02663,-2.15515 c -4.89762,-3.48741 -5.34508,-1.8153 -6.13151,22.91267 -1.9351,60.84598 -6.71229,116.05922 -11.77568,136.09949 -2.57529,10.19266 -2.77343,9.90628 10.79549,15.60278 8.56558,3.596 12.80002,6.56616 9.36111,6.56616 -2.56162,0 -14.66525,6.32717 -17.36374,9.07688 -4.63481,4.7228 -6.98087,4.01342 -16.38539,-4.95445 z M 214.93227,402.0674 c 3.57674,-10.83763 5.5027,-75.05528 3.03229,-101.1067 -1.10122,-11.61286 -1.58064,-13.38244 -3.18965,-11.77343 -2.91257,2.91257 -7.86717,104.98125 -5.50586,113.42491 1.10732,3.95958 4.27729,3.65464 5.66322,-0.54478 z M 209.5,200.00933 c 9.18563,-4.28659 16.39403,-14.91929 20.52902,-30.2812 2.71843,-10.09928 3.69447,-29.93216 2.0405,-41.46252 -2.14983,-14.98713 -2.30006,-15.15288 -8.06952,-8.90343 -2.98457,3.23288 -4.37876,4 -7.26966,4 -6.78003,0 -12.73034,-7.24489 -12.73034,-15.5 0,-9.011559 5.83685,-14.554362 13.12528,-12.464066 1.84884,0.530238 3.70199,0.964069 4.11812,0.964069 3.20889,0 -5.07971,-14.931553 -12.29242,-22.14426 -14.25653,-14.256532 -30.84726,-13.090822 -41.54046,2.918746 -17.27779,25.867871 -14.26541,76.515331 6.35717,106.883421 10.66576,15.70602 23.77195,21.57069 35.73231,15.98924 z m -30.54805,-69.90055 c -11.27632,-7.5991 -8.87915,-26.7636 3.3451,-26.74286 6.751,0.0114 13.44769,9.54614 12.34666,17.57904 -0.77759,5.67316 -2.97662,8.98902 -6.85892,10.3424 -4.26853,1.48802 -5.02582,1.38697 -8.83284,-1.17858 z m 10.12497,-3.66967 c 3.52874,-3.52874 3.87234,-8.2959 1.00329,-13.9197 -3.19967,-6.27188 -9.11464,-7.87933 -13.1559,-3.57525 -4.77385,5.08431 -2.45065,15.74972 4.17209,19.15328 3.5464,1.82257 4.74965,1.57254 7.98052,-1.65833 z m 31.94117,-7.8905 c 3.47591,-2.81462 3.8791,-10.62756 0.7837,-15.18643 -3.29645,-4.854968 -6.95374,-6.515583 -10.55179,-4.791106 -6.01406,2.882426 -6.04194,14.264056 -0.0473,19.308226 3.4952,2.94102 6.73695,3.16208 9.81538,0.66931 z"
         id="path3204"
         inkscape:connector-curvature="0" />
    </g>
  </g>
</svg>
